<svg id="Layer_1" data-name="Layer 1" xmlns="http://www.w3.org/2000/svg" xmlns:xlink="http://www.w3.org/1999/xlink" viewBox="0 0 314.28 297.1"><defs><linearGradient id="linear-gradient" x1="266" y1="162.68" x2="159.01" y2="223.16" gradientUnits="userSpaceOnUse"><stop offset="0.01"/><stop offset="0.13" stop-opacity="0.69"/><stop offset="1" stop-opacity="0"/></linearGradient><linearGradient id="linear-gradient-2" x1="348.63" y1="221.37" x2="232.34" y2="242.94" xlink:href="#linear-gradient"/><linearGradient id="linear-gradient-3" x1="233.59" y1="177.12" x2="237.39" y2="342.68" xlink:href="#linear-gradient"/><linearGradient id="linear-gradient-4" x1="149.38" y1="159.86" x2="178.08" y2="221.89" xlink:href="#linear-gradient"/><linearGradient id="linear-gradient-5" x1="107.94" y1="20.28" x2="163.77" y2="211.22" xlink:href="#linear-gradient"/><linearGradient id="linear-gradient-6" x1="267.25" y1="130.95" x2="273.47" y2="130.95" xlink:href="#linear-gradient"/><linearGradient id="linear-gradient-7" x1="360.91" y1="210.37" x2="250.53" y2="212.91" xlink:href="#linear-gradient"/><linearGradient id="linear-gradient-8" x1="247.72" y1="144.95" x2="263.26" y2="188.4" xlink:href="#linear-gradient"/><linearGradient id="linear-gradient-9" x1="234.56" y1="186.47" x2="255.91" y2="186.47" xlink:href="#linear-gradient"/><linearGradient id="linear-gradient-10" x1="230.21" y1="172.37" x2="284.23" y2="172.37" xlink:href="#linear-gradient"/><linearGradient id="linear-gradient-11" x1="225.42" y1="115.7" x2="277.94" y2="115.7" xlink:href="#linear-gradient"/></defs><title>8</title><path d="M386.58,261.92c-7.44,32.18-42.28,51.07-75.15,54.34-4.39.44-8.79.68-13.18.75-24.74.43-49.5-4.16-74.33-5.95-3.75-.27-7.5-.48-11.25-.59-35.38-1.09-74.1,5.12-103.49-14.62C86,280.29,74.64,251.32,73.89,223.43s7.64-55.16,16.9-81.48c11.91-33.85,26.1-68.23,51.89-93.18,23.25-22.47,52.8-31.58,84.52-28.12,29.57,3.22,60.08,4.6,89.36,8.57,41.89,5.68,74.77,49.12,68.84,91-2.2,15.56-8.93,30.31-10.14,46C372.75,198.48,393.87,230.35,386.58,261.92Z" transform="translate(-73.84 -19.94)" fill="#5c66f3" opacity="0.18" style="isolation:isolate"/><path d="M298.25,317c-24.74.43-49.5-4.16-74.33-5.95q1.59-6,3.17-12.07c1.89-7.17,2.66-7.18,9.86-5.79a154.84,154.84,0,0,0,39.21,2.46c1.71-.11,18.94-1.36,19-2.41A76.38,76.38,0,0,0,298.25,317Z" transform="translate(-73.84 -19.94)" fill="#080608"/><path d="M225.53,151.51c3.56,7.93,9.3,16.54,18,17,4.85.24,9.46-2.28,13.08-5.52,9.88-8.85,13.71-22.63,15.12-35.82.72-6.71.8-14-2.92-19.62s-10.14-8.3-16.51-9.9c-12.84-3.23-31.5-1.1-36.54,13.68C211.79,122.88,220.93,141.26,225.53,151.51Z" transform="translate(-73.84 -19.94)" fill="#f38a6b"/><path d="M266,129.62c0-.05,0-.1,0-.15l0,.12s0,0,0,0c0,.25.06.51.08.78a6.42,6.42,0,0,1-.1-.75Z" transform="translate(-73.84 -19.94)" fill="#32406a"/><path d="M275.32,117.88c-.22.73-.45,1.45-.68,2.17q-1.65,5.13-3.31,10.26a12,12,0,0,0-3-5.26,9.42,9.42,0,0,0-1-.91,8.85,8.85,0,0,0-1.34,5.33c-.64-3.81-3.79-6.84-7-9.12-3.45-2.46-7.34-4.67-9.46-8.34a6.76,6.76,0,0,0-1.51-2.13,4.82,4.82,0,0,0-3-.7c-1.81,0-3.71.22-5.56.27-2.71.06-5.33-.18-7.5-1.71a20.51,20.51,0,0,0-3.09-2.28c-2-.87-4.28-.18-6.13.91a16,16,0,0,0-7.43,10.31c-.59,2.83-.59,6.18-2.86,8-1.9,1.5-4.79,1.18-6.74-.25a11,11,0,0,1-3.7-6.07c-.51-1.91-.82-4-2.21-5.43-1.63-1.64-4.19-1.77-6.35-2.62a9.57,9.57,0,0,1,2.94-18.45c3.43-.21,7.16,1.37,10.14-.33,7.61-4.35,13.74-12.23,23.59-10.5,5.17.91,10.21,3.19,15.42,2.65,2.33-.24,4.58-1.05,6.91-1.22,7.07-.51,13.86,5.87,13.78,12.95,5.06-.58,9.49,4,10.59,9,0,.12.06.23.08.35C277.71,109.13,276.65,113.58,275.32,117.88Z" transform="translate(-73.84 -19.94)" fill="#32406a"/><path d="M276,122.42a8.57,8.57,0,0,1,.1,4.87,36.38,36.38,0,0,1-2.06,6.86c-.83,2-2,4.1-4.09,4.77a2.22,2.22,0,0,1-1.87-.12c-2.73-1.77-2.46-9.21-1.36-12C267.91,123.79,273.43,116.12,276,122.42Z" transform="translate(-73.84 -19.94)" fill="#f38a6b"/><path d="M243,126.86a11,11,0,0,1-4.89,1.3c-2,0-6.18-3.71-3.17-3.27,1.21.17,2.62,1.52,3.94,1.84C239.93,127,241.9,127.36,243,126.86Z" transform="translate(-73.84 -19.94)" fill="#32406a"/><path d="M221.61,132.1a5.88,5.88,0,0,0,3.64-.52c1.26-.73,2.72-5.6.91-4.14-.72.59-1.16,2.33-1.91,3.09S222.48,132.19,221.61,132.1Z" transform="translate(-73.84 -19.94)" fill="#32406a"/><path d="M225.74,135.2a6.35,6.35,0,0,1,1.5-.31,3.37,3.37,0,0,1,1.38.07,1.42,1.42,0,0,1,1,.92,7.1,7.1,0,0,0-4.23.3,6.06,6.06,0,0,0-2.05,1.6A3.68,3.68,0,0,1,225.74,135.2Z" transform="translate(-73.84 -19.94)" fill="#32406a"/><path d="M239.91,132.28a5.89,5.89,0,0,1,1.51-.32,3.33,3.33,0,0,1,1.37.08,1.41,1.41,0,0,1,1,.91,7.1,7.1,0,0,0-4.23.3,5.93,5.93,0,0,0-2,1.6A3.64,3.64,0,0,1,239.91,132.28Z" transform="translate(-73.84 -19.94)" fill="#32406a"/><path d="M231.45,142.78c-.56.91-1.33,1.87-1.1,2.92a2.5,2.5,0,0,0,1.72,1.65c.78.27,1.63.32,2.43.52a8.43,8.43,0,0,1,1.93.76c.17-.37-.14-.78-.49-1a3.17,3.17,0,0,1-1-.66c-.49-.65,0-1.67-.48-2.34-.34-.49-1-.57-1.53-.9a2.36,2.36,0,0,1-1-2,3.34,3.34,0,0,1,.4-1.66C232.58,140.87,231.93,142,231.45,142.78Z" transform="translate(-73.84 -19.94)" fill="#eb737f"/><path d="M240.48,152a25.56,25.56,0,0,1-5.8,1.07.85.85,0,0,0-.54.17c-.27.25-.08.69,0,1.05a13.86,13.86,0,0,1,.27,1.61,1.46,1.46,0,0,0,1,1.2,2.09,2.09,0,0,0,1.45-.45,8.08,8.08,0,0,1,4.11-1,2.18,2.18,0,0,1,.95.19,4,4,0,0,1,.66.5,3,3,0,0,0,2.63.57,2.38,2.38,0,0,0-.67-.55,6,6,0,0,1-2.73-7.15C241.61,150.35,241.63,151.62,240.48,152Z" transform="translate(-73.84 -19.94)" fill="#32406a"/><path d="M239.2,153a3.28,3.28,0,0,0-.84.73,3.07,3.07,0,0,0-.38.77l-.43,1.08a4,4,0,0,0,1.52-.17,15.08,15.08,0,0,1,2.31-.31c.1,0,.22,0,.27-.11a.3.3,0,0,0,0-.26c-.16-.4-.4-.76-.57-1.14s0-1.12-.45-1.23S239.51,152.74,239.2,153Z" transform="translate(-73.84 -19.94)" fill="#eb737f"/><path d="M233.94,189.56a48.49,48.49,0,0,1-1.35,34.35,16.48,16.48,0,0,1-4,6.09,21,21,0,0,1-5.75,3.14c-19.51,8.3-40.08,28.94-63.07,22.42-3.67-1-7.3-2.94-9.29-6.19a12.19,12.19,0,0,1-1.48-3.82,21.11,21.11,0,0,1-.37-5.27c.58-14,9.44-26.1,15.36-38.83,3.92-8.41,6.64-17.39,10.46-25.8a75.21,75.21,0,0,1,4.9-9.21,5,5,0,0,1,6-2.9,51.6,51.6,0,0,1,11,2.56c.21,8-3,15.63-5.27,23.3a103.2,103.2,0,0,0-4.21,27.32,131.05,131.05,0,0,0,37.05-23.67c4.93-4.48,13-12.11,13.2-.32.14,7.46-3.11,15.47-7.58,21.31a73.16,73.16,0,0,1-6.79,7.4l-9.41,9.35c-7.32,7.28-14.77,14.65-23.74,19.77q-.4.24-.81.45" transform="translate(-73.84 -19.94)" fill="#5c66f3"/><path d="M233.94,189.56a48.49,48.49,0,0,1-1.35,34.35,16.48,16.48,0,0,1-4,6.09,21,21,0,0,1-5.75,3.14c-19.51,8.3-40.08,28.94-63.07,22.42-3.67-1-7.3-2.94-9.29-6.19a12.19,12.19,0,0,1-1.48-3.82,21.11,21.11,0,0,1-.37-5.27c.58-14,9.44-26.1,15.36-38.83,3.92-8.41,6.64-17.39,10.46-25.8a75.21,75.21,0,0,1,4.9-9.21,5,5,0,0,1,6-2.9,51.6,51.6,0,0,1,11,2.56c.21,8-3,15.63-5.27,23.3a103.2,103.2,0,0,0-4.21,27.32,131.05,131.05,0,0,0,37.05-23.67c4.93-4.48,13-12.11,13.2-.32.14,7.46-3.11,15.47-7.58,21.31a73.16,73.16,0,0,1-6.79,7.4l-9.41,9.35c-7.32,7.28-14.77,14.65-23.74,19.77q-.4.24-.81.45" transform="translate(-73.84 -19.94)" fill="url(#linear-gradient)"/><path d="M233.58,256.5c-.68,10.85-4.78,21.34-4.84,32.21a8.11,8.11,0,0,0,1.1,4.86c1,1.44,2.79,2.12,4.46,2.68a102.61,102.61,0,0,0,54.28,2.95c2.23-.49,4.55-1.11,6.2-2.69a11.48,11.48,0,0,0,2.77-5.66c2.08-8.57,1.13-17.55,0-26.3a831.11,831.11,0,0,0-15.28-85.2c-.57-2.45-1.2-5-2.82-6.93-2.65-3.18-7.42-3.88-11.42-2.8-11.52,3.11-31.52,18.12-35.8,29.94C225.73,217.57,234.73,238.16,233.58,256.5Z" transform="translate(-73.84 -19.94)" fill="#5c66f3"/><path d="M233.58,256.5c-.68,10.85-4.78,21.34-4.84,32.21a8.11,8.11,0,0,0,1.1,4.86c1,1.44,2.79,2.12,4.46,2.68a102.61,102.61,0,0,0,54.28,2.95c2.23-.49,4.55-1.11,6.2-2.69a11.48,11.48,0,0,0,2.77-5.66c2.08-8.57,1.13-17.55,0-26.3a831.11,831.11,0,0,0-15.28-85.2c-.57-2.45-1.2-5-2.82-6.93-2.65-3.18-7.42-3.88-11.42-2.8-11.52,3.11-31.52,18.12-35.8,29.94C225.73,217.57,234.73,238.16,233.58,256.5Z" transform="translate(-73.84 -19.94)" fill="url(#linear-gradient-2)"/><path d="M226.79,240.2c-1.56,5.25-4.4,10-6.73,15a82.82,82.82,0,0,0-7,23.09,53.71,53.71,0,0,1,28.71-.26l3.45-46.74A210.14,210.14,0,0,1,256.37,176C243,171.45,237,181.64,235,192.6,232.19,208,231.23,225.35,226.79,240.2Z" transform="translate(-73.84 -19.94)" fill="#5c66f3"/><path d="M256.37,176c-.16.45-.31.91-.46,1.36-1.62,4.75-3,9.42-4.24,14.09a216.69,216.69,0,0,0-6.41,39.84L241.81,278a53.62,53.62,0,0,0-28.71.25,82.92,82.92,0,0,1,7-23.09c2.33-4.95,5.17-9.71,6.73-15,4.2-14,5.28-30.31,7.77-45l.45-2.55c.2-1.1.44-2.2.73-3.27C238.29,179.74,244.33,171.91,256.37,176Z" transform="translate(-73.84 -19.94)" fill="url(#linear-gradient-3)"/><path d="M263.32,151.53c-1.88,5.66-3.8,11.83-8.65,15.31-4.49,3.22-10.51,3.35-16,2.44-2.52-.43-5.14-1-7.57-.28s-4.46,3.55-3.36,5.86c1,2.11,4,2.76,4.83,4.95.62,1.65-.28,3.47-.2,5.23.16,3.23,3.79,5.44,7,5.11s6-2.5,8.18-4.86,4.17-5,6.82-6.88c4.23-3,9.62-3.51,14.71-4.37s10.54-2.42,13.58-6.58c2-2.79,2.26-7.45-.78-9.08a5.35,5.35,0,0,1-1.77-1.06c-.86-1-.12-2.59.07-3.93.58-3.94-4.42-5.87-7.35-7.09C267.56,144.09,265,146.38,263.32,151.53Z" transform="translate(-73.84 -19.94)" fill="#5c66f3"/><path d="M192.18,174.77c-1.68,2.62-4.75,3.91-7.3,5.68a20.58,20.58,0,0,0-5.65,6,172.14,172.14,0,0,0-20.84,50.69,14,14,0,0,1-1.93,5.11c-1.71,2.35-4.48,3.2-7.46,3.34a21.11,21.11,0,0,1-.37-5.27c.58-14,9.44-26.1,15.36-38.83,3.92-8.41,6.64-17.39,10.46-25.8,6.22-2.34,12.8-3.43,18.93-7.21A9.24,9.24,0,0,1,192.18,174.77Z" transform="translate(-73.84 -19.94)" fill="url(#linear-gradient-4)"/><path d="M181.54,148a6.1,6.1,0,0,1,1.09-2.62,6,6,0,0,1,2.92-1.57,58,58,0,0,1,13.08-2.39,11.28,11.28,0,0,1,6.18.87c3.41,1.85,4.33,6.23,4.88,10.07a3.94,3.94,0,0,1-.09,2.13,4.7,4.7,0,0,1-2.16,1.83,12.33,12.33,0,0,0-5.36,6.66,8.67,8.67,0,0,1-1.46,3.32,4.71,4.71,0,0,1-3,1.28c-3.53.37-6.75-1.39-10.19-1.78-2.28-.26-6.6,1-8.17-1.14C177.27,161.87,180.83,151.08,181.54,148Z" transform="translate(-73.84 -19.94)" fill="#f38a6b"/><path d="M196.39,169.37c-9.29,6-20.65,9.07-28.29,17.08-5.5,5.76-8.77,13.81-15,18.49a19.43,19.43,0,0,1-2.13,1.38c-2.15,1.21-5.11,1.85-6.9.16-1.34-1.26-1.55-3.39-2.88-4.64-3.39-3.19-8.89,2.22-13.34.86-4-1.23-4.36-6.88-3.13-10.91s3.17-8.59,1-12.2c-2.51-4.19-9.54-5-10.37-9.81a1,1,0,0,1,0-.24c-.32-2.62,1.66-5.13,4.07-6.27s5.32-1.22,8.07-1.29A333.2,333.2,0,0,0,171.36,158c6-.94,28.93-8.65,30.72,2.63C202.65,164.3,199.47,167.37,196.39,169.37Z" transform="translate(-73.84 -19.94)" fill="#fff"/><path d="M186.27,163.83c-1.07,5-6.26,7.73-10.74,10.16a105.4,105.4,0,0,0-13.21,8.46c-1.8,1.36-3.77,3.37-3.09,5.52.22.72.72,1.33.89,2.05a4.85,4.85,0,0,1-.82,3.28L154.71,202c-.52,1-1.06,2-1.63,3a19.43,19.43,0,0,1-2.13,1.38c-2.15,1.21-5.11,1.85-6.9.16-1.34-1.26-1.55-3.39-2.88-4.64-3.39-3.19-8.89,2.22-13.34.86-4-1.23-4.36-6.88-3.13-10.91s3.17-8.59,1-12.2c-2.51-4.19-9.54-5-10.37-9.81a1,1,0,0,1,0-.24,36.38,36.38,0,0,1,6.67,1.38c4.8,1.22,17.78.29,18.64,7.17.35,2.78-1.86,5.63-.84,8.25,1.35,1.34,3.76.5,5-1s1.87-3.35,3.17-4.75a13,13,0,0,1,4.74-2.82Z" transform="translate(-73.84 -19.94)" fill="url(#linear-gradient-5)"/><path d="M231.71,211.66c-1.45-2.95-3.64-6-6.87-6.54l-.12,4.39a18.18,18.18,0,0,0-9.93-6.88,53.43,53.43,0,0,0-12.15-1.83c-.88,1.07.58,2.48,1.82,3.09l7,3.44a34.78,34.78,0,0,0-10.26-1.74,1.78,1.78,0,0,0-1.07.23,1.19,1.19,0,0,0-.1,1.59,3.47,3.47,0,0,0,1.43,1l7.63,3.6a43.69,43.69,0,0,0-9.41-.75c-1,0-2.43.51-2.25,1.53.1.61.73.94,1.29,1.19l9.57,4.22c-2.59-.49-5.43-.94-7.75.32,2.37,2.39,5.91,3.1,8.88,4.67,4.29,2.28,7.47,6.42,12,8.18a25.85,25.85,0,0,0,8.5,1.28,9,9,0,0,0,3.54-.35C242.15,229,234,216.25,231.71,211.66Z" transform="translate(-73.84 -19.94)" fill="#f38a6b"/><path d="M267.25,134a2,2,0,0,0,2-1.39,7.36,7.36,0,0,0,.23-2.65,7.14,7.14,0,0,1,.34-2.56,3.2,3.2,0,0,1,1.66-1.89,1.26,1.26,0,0,1,.83-.1,1.37,1.37,0,0,1,.78.88,6.65,6.65,0,0,1,.35,2.66,22.77,22.77,0,0,1-.53,4.28,4.3,4.3,0,0,1-.54,1.45,5,5,0,0,1-.77.83,3.51,3.51,0,0,1-1.65,1,1.81,1.81,0,0,1-1.87-.87,1.83,1.83,0,0,1,.22-2.06" transform="translate(-73.84 -19.94)" fill="url(#linear-gradient-6)"/><path d="M310.59,252.21a6.14,6.14,0,0,1-.19,4,5.66,5.66,0,0,1-3.2,2.26c-11.87,4.39-25.18,1.73-37.12-2.46a153,153,0,0,1-26.81-12.42c-4.51-2.65-9.11-5.78-11.29-10.53s-.79-11.5,4.08-13.4c3.45-1.34,7.29,0,10.72,1.43l19.84,8c1.1-6.48-2.44-12.72-4.78-18.86-4.64-12.17-4.25-25.5,3.61-36.18,6.84-9.31,17.82-15.49,27.15-5.48,8.1,8.7,7.86,26.4,9.82,37.5Z" transform="translate(-73.84 -19.94)" fill="#5c66f3"/><path d="M310.59,252.21a6.14,6.14,0,0,1-.19,4,5.66,5.66,0,0,1-3.2,2.26c-11.87,4.39-25.18,1.73-37.12-2.46a153,153,0,0,1-26.81-12.42c-4.51-2.65-9.11-5.78-11.29-10.53s-.79-11.5,4.08-13.4c3.45-1.34,7.29,0,10.72,1.43l19.84,8c1.1-6.48-2.44-12.72-4.78-18.86-4.64-12.17-4.25-25.5,3.61-36.18,6.84-9.31,17.82-15.49,27.15-5.48,8.1,8.7,7.86,26.4,9.82,37.5Z" transform="translate(-73.84 -19.94)" fill="url(#linear-gradient-7)"/><path d="M282.71,167.3c-3,4.17-8.49,5.72-13.58,6.59s-10.48,1.39-14.71,4.36c-2.65,1.86-4.6,4.53-6.82,6.89s-4.95,4.52-8.18,4.85-6.85-1.87-7-5.11c-.08-1.76.82-3.58.2-5.23a5.86,5.86,0,0,0-2.4-2.54,7,7,0,0,1-2.43-2.41c-1.1-2.3.92-5.09,3.36-5.85s5.05-.15,7.57.27c5.45.91,11.47.78,16-2.44,4.85-3.48,6.77-9.64,8.65-15.31,1.71-5.14,4.24-7.44,9.56-5.23,2.93,1.22,7.93,3.15,7.35,7.09-.07.48-.2,1-.31,1.48a2.79,2.79,0,0,0,.24,2.46,5.33,5.33,0,0,0,1.77,1.05C285,159.85,284.75,164.52,282.71,167.3Z" transform="translate(-73.84 -19.94)" fill="url(#linear-gradient-8)"/><path d="M255.91,177.33c-1.62,4.75-3,9.42-4.24,14.09a15.6,15.6,0,0,1-4.55,3.15,18.54,18.54,0,0,1-6.34,1,21.17,21.17,0,0,1-6.22-.41l.45-2.55c.2-1.1.44-2.2.73-3.27a7,7,0,0,0,3.68.66c3.23-.33,6-2.5,8.18-4.85s4.17-5,6.82-6.89A15.31,15.31,0,0,1,255.91,177.33Z" transform="translate(-73.84 -19.94)" fill="url(#linear-gradient-9)"/><path d="M282.71,167.3c-3,4.17-8.49,5.72-13.58,6.59s-10.48,1.39-14.71,4.36c-2.65,1.86-4.6,4.53-6.82,6.89s-4.95,4.52-8.18,4.85-6.85-1.87-7-5.11c-.08-1.76.82-3.58.2-5.23a5.86,5.86,0,0,0-2.4-2.54,4.27,4.27,0,0,1,2.84-1.71,3,3,0,0,1,3.29,2.64c0,.6-.22,1.24.07,1.75a1.75,1.75,0,0,0,1.07.71c2.84.87,5.93-.32,8.39-2s4.57-3.86,7.16-5.33c5.6-3.17,12.83-2.68,18.17-6.27,1.45-1,2.82-2.81,2-4.34-4.17-.83-7.94,3.4-12.19,3.1,3.92-1.72,8.88-3.11,12-6.1,2.16-2.05,3.94-4.56,6.91-4.84a2.79,2.79,0,0,0,.24,2.46,5.33,5.33,0,0,0,1.77,1.05C285,159.85,284.75,164.52,282.71,167.3Z" transform="translate(-73.84 -19.94)" fill="url(#linear-gradient-10)"/><path d="M149.78,139.39c9.75-.16,19.52-.33,29.23.46,1.34.11,2.69.24,4,.26s2.79-.09,4.19-.17c5.24-.29,10.43-.05,15.66.08-6.78-2.68-17.45-.65-24.72-.65C168.71,139.38,159.24,139.23,149.78,139.39Z" transform="translate(-73.84 -19.94)" fill="#fff"/><path d="M186.81,193.34c-5.54,4.32-11.45,8.68-14.54,15a25.37,25.37,0,0,0,9.56-6.38c2.81-3,4.87-6.63,7.83-9.47,4.58-4.41,10.94-6.54,15.74-10.72a46.33,46.33,0,0,0,10.35-13.27c-4.46.66-10.18,8.87-13.53,11.9C197.25,184.88,192.15,189.29,186.81,193.34Z" transform="translate(-73.84 -19.94)" fill="#fff"/><path d="M275.32,117.88a12.08,12.08,0,0,1-1,1.25c-1.91,2.07-4.46,3.58-6,5.92-.06.09-.12.17-.17.26-.84,1.35-1.3,2.91-2.12,4.28,0,0,0,0,0,0s0,0,0,0,0-.1,0-.15c-.64-3.81-3.79-6.84-7-9.12-3.45-2.46-7.34-4.67-9.46-8.34a6.76,6.76,0,0,0-1.51-2.13,4.82,4.82,0,0,0-3-.7c-1.81,0-3.71.22-5.56.27-.77-.5-1.5-1.09-2.24-1.64a28.88,28.88,0,0,0-11.78-5.17l22.94,1.72a2.08,2.08,0,0,0,1-.09c.61-.26.79-1,1.18-1.57a2.93,2.93,0,0,1,3.76-.46,8.45,8.45,0,0,1,2.69,3.11c1.4,2.28,2.16,4.92,5.18,4.35,2-.37,3.72-1.25,5.78-1.44,4-.36,5.91-1.28,8.49-4.58a7.28,7.28,0,0,1,.4.72C278.89,108.51,277.94,114.12,275.32,117.88Z" transform="translate(-73.84 -19.94)" fill="url(#linear-gradient-11)"/></svg>