<svg id="Layer_1" data-name="Layer 1" xmlns="http://www.w3.org/2000/svg" xmlns:xlink="http://www.w3.org/1999/xlink" viewBox="0 0 384.27 324.11"><defs><linearGradient id="linear-gradient" x1="329.63" y1="271.66" x2="-288.24" y2="146.05" gradientUnits="userSpaceOnUse"><stop offset="0.01"/><stop offset="0.13" stop-opacity="0.69"/><stop offset="0.25" stop-opacity="0.32"/><stop offset="1" stop-opacity="0"/></linearGradient><linearGradient id="linear-gradient-2" x1="238.07" y1="242.05" x2="100.22" y2="321.02" gradientUnits="userSpaceOnUse"><stop offset="0.01"/><stop offset="0.13" stop-opacity="0.69"/><stop offset="1" stop-opacity="0"/></linearGradient><linearGradient id="linear-gradient-3" x1="181.55" y1="237.03" x2="133.95" y2="214.82" xlink:href="#linear-gradient-2"/><linearGradient id="linear-gradient-4" x1="164.59" y1="211.93" x2="154.86" y2="282.13" xlink:href="#linear-gradient-2"/><linearGradient id="linear-gradient-5" x1="309.31" y1="-108.99" x2="256.03" y2="214.53" xlink:href="#linear-gradient-2"/><linearGradient id="linear-gradient-6" x1="391.41" y1="15.5" x2="191.59" y2="181.7" xlink:href="#linear-gradient-2"/><linearGradient id="linear-gradient-7" x1="43.8" y1="380.86" x2="112.31" y2="284.75" xlink:href="#linear-gradient-2"/></defs><title>10</title><path d="M391.26,305.07c-9.91,12-32.48,17.09-47,20.79a170.68,170.68,0,0,1-52.94,4.95c-15.95-1-31.72-4.31-47.58-6.23a177.56,177.56,0,0,0-20.87-1.42,149.17,149.17,0,0,0-16.92,1,304.62,304.62,0,0,0-34.16,6.21l-7.8,1.79c-5.14,1.19-10.28,2.38-15.43,3.48-5.79,1.24-11.59,2.38-17.42,3.29a156.51,156.51,0,0,1-26.42,1.94c-22.85-.33-45.34-6.39-60.77-22.6-8.61-9.05-14.24-20.5-19-32.05-3.62-8.73-7.15-17.85-8.86-27.19-2.25-12.3-.25-11.27,6.1-20.78a88.75,88.75,0,0,0,15.2-49.13c.39-21.7-4.57-43.1-6.53-64.71a157.15,157.15,0,0,1-.54-22.77C31.08,87.35,34.34,73.39,42,61.49c15.62-24.25,45.68-34.58,74-39.85A267.61,267.61,0,0,1,164,16.76q7.22,0,14.42.45C214.25,19.7,249.05,32.43,285,32.36c33.21-.07,67.64-6.88,87,26.85C386.78,85,388.2,116.1,387.1,145.76s-4.29,59.83,2.56,88.71c2.35,9.93,5.88,19.59,8,29.54.43,2,.8,4.06,1.1,6.11C400.52,282.27,399.09,295.62,391.26,305.07Z" transform="translate(-15.17 -16.76)" fill="#5c66f3" opacity="0.18" style="isolation:isolate"/><path d="M154,305.79q-2.72,14.91-5.45,29.83c-5.79,1.24-11.59,2.38-17.42,3.29a156.51,156.51,0,0,1-26.42,1.94c-22.85-.33-45.34-6.39-60.77-22.6-8.61-9.05-14.24-20.5-19-32.05-3.62-8.73-7.15-17.85-8.86-27.19-2.25-12.3-.25-11.27,6.1-20.78a88.75,88.75,0,0,0,15.2-49.13c.39-21.7-4.57-43.1-6.53-64.71a157.15,157.15,0,0,1-.54-22.77c9.7-3.91,21.59-3.74,32.07-1.37,6.24,1.41,12.53,3.52,17.32,7.77,9.36,8.31,10.6,22.51,8.87,34.91s-5.76,24.71-4.44,37.16c.48,4.5,1.66,8.95,1.53,13.47-.41,14.23-13.5,27.77-8.27,41,27.3,2.82,74.13,13.67,78.51,46.63C157,289.38,155.48,297.67,154,305.79Z" transform="translate(-15.17 -16.76)" fill="url(#linear-gradient)"/><path d="M205.94,324.14c-4.81.53-9.61,1.26-14.39,2.11-6.61,1.18-13.19,2.6-19.77,4.1l-7.8,1.79c-3.55.82-7.1,1.64-10.65,2.43s-7.14,1.57-10.71,2.28c-3.82.76-7.65,1.46-11.49,2.06a156.51,156.51,0,0,1-26.42,1.94c-23.17-13.37-53-32.09-56.27-41.77-5.26-15.38,3.43-24.57,9.37-31.63q.4-.46.78-.93c5.92-7.19,34.26-8.46,45.25-8.46,5,0,12.74,3.47,19.75,7.27h0c8.44,4.58,15.76,9.63,15.76,9.63l16.36,10,48.7,29.76Z" transform="translate(-15.17 -16.76)" fill="#5c66f3"/><path d="M191.55,326.25c-6.61,1.18-13.19,2.6-19.77,4.1l-7.8,1.79c-3.55.82-7.1,1.64-10.65,2.43-5.29-2.43-10.63-4.77-15.8-7.5a171.68,171.68,0,0,1-23.58-15c-2.78-2.11-5.57-4.39-7.29-7.43-2.48-4.37-2.43-9.78-1.25-14.67a3.62,3.62,0,0,0,0-2.67,3.41,3.41,0,0,0-1.57-1.19,65.49,65.49,0,0,1-11.62-7.43,8,8,0,0,1-3-3.83c-.86-3.19,2.12-6.07,5-7.71,6-4.49,16.23-6.29,23.3-3.93,2,.67,4.07,1.38,6.16,2.14h0c7.47,2.73,15.24,6.06,21.57,10.2A54.32,54.32,0,0,1,155.73,285c2.15,2.41,4.19,4.93,6.21,7.44l12.93,16.06c2.37,2.84,4.08,6,6.19,8.95,1.72,2.42,4.73,4.09,7.07,5.94C189.28,324.26,190.46,325.22,191.55,326.25Z" transform="translate(-15.17 -16.76)" fill="url(#linear-gradient-2)"/><path d="M391.26,305.07c-9.91,12-32.48,17.09-47,20.79a173.21,173.21,0,0,1-18.63,3.66,170.38,170.38,0,0,1-34.31,1.29c-15.95-1-31.72-4.31-47.58-6.23a177.56,177.56,0,0,0-20.87-1.42,145.72,145.72,0,0,0-15.23.8c-12,1.21-23.95,3.69-35.85,6.39l-7.8,1.79V16.76q7.22,0,14.42.45C214.25,19.7,249.05,32.43,285,32.36c33.21-.07,67.64-6.88,87,26.85C386.78,85,388.2,116.1,387.1,145.76s-4.29,59.83,2.56,88.71c2.35,9.93,5.88,19.59,8,29.54.43,2,.8,4.06,1.1,6.11C400.52,282.27,399.09,295.62,391.26,305.07Z" transform="translate(-15.17 -16.76)" fill="#5c66f3" opacity="0.23"/><polygon points="190.45 47.97 197.26 45.07 320.64 52.69 320.64 247.5 307.75 247.5 190.45 47.97" fill="#5c66f3"/><path d="M325.62,329.52a170.38,170.38,0,0,1-34.31,1.29c-15.95-1-31.72-4.31-47.58-6.23a177.56,177.56,0,0,0-20.87-1.42,145.72,145.72,0,0,0-15.23.8c-10.16-3.21-19.63-7.84-26.63-15.71-10.47-11.77-13.16-28.4-14.35-44.11a347.51,347.51,0,0,1,13.27-124.31,18.25,18.25,0,0,1,2.93-6.5c3.76-4.58,11.3-4.41,16.1-.94s7.33,9.28,8.85,15c3.28,12.4,1.44,28.05-9.73,34.34,5.83,8.64-1.28,22.62,6.27,29.8,2.28,2.17,5.42,3.11,8.21,4.55,8.52,4.41,13.72,13.63,15.61,23s.93,19.13-.06,28.68c-.28,2.66-.52,5.52.8,7.84,1.49,2.62,4.53,3.85,7.36,4.85,16.86,5.91,34.44,9.8,50.8,17,14.25,6.24,30.24,16.28,37.78,30.49C325.13,328.49,325.39,329,325.62,329.52Z" transform="translate(-15.17 -16.76)" fill="#5c66f3" opacity="0.23"/><polygon points="201.59 59.32 201.59 179.82 294.13 223.22 297.42 69.28 201.59 59.32" fill="#fff"/><path d="M285.39,170.85a1,1,0,0,0-.18-.71.88.88,0,0,0-.67-.22,4.55,4.55,0,0,0-4,2.3c1.32,1,2.46,2.47,2.22,4.09s-2.48,2.76-3.6,1.57c-.61-.66-.71-1.76-1.48-2.21a1.76,1.76,0,0,0-2.31,1,5.15,5.15,0,0,0-.07,2.81,6.94,6.94,0,0,1,5.11,2.51,4,4,0,0,1-1.95.66,2.71,2.71,0,0,0-1.83.9c-.4.57-.14,1.59.56,1.63a2.35,2.35,0,0,1,3.69,0c-.26,1.25-1.46,2-2.26,3s-1,2.85.23,3.26a5.65,5.65,0,0,0,2.13-2.78l1.76,0c.51,1.06,0,2.3-.29,3.42s-.39,2.58.57,3.24,2.15.17,3.15-.31a4.82,4.82,0,0,1-.56-2.9c.24-1,1.41-1.77,2.26-1.24s.74,1.64.71,2.58.38,2.16,1.32,2.13,1.29-1.35,1-2.25-1-1.7-1-2.66a4,4,0,0,1,5.38,3.61,3.7,3.7,0,0,0,.4-4.67,4.53,4.53,0,0,1-.74-1.12,1.9,1.9,0,0,1,1.47-2.2,5.61,5.61,0,0,1,2.91.3c.43-1-.49-2.1-1.53-2.31a5.38,5.38,0,0,0-3.07.61c0-1,1.16-1.56,2.05-2.06s1.72-1.76.95-2.43-1.93.35-2.38,1.3-1.24,2.14-2.23,1.78c-1-.55-.39-2.15.48-2.93s2-1.85,1.46-2.9c-.44-.56-1.36-.16-1.85.36s-1.05,1.19-1.76,1.06-1-1.16-.73-1.87a7.2,7.2,0,0,1,1.4-1.82,2,2,0,0,0,.48-2.12,2,2,0,0,0-2.95.52,16.89,16.89,0,0,0-.53,2.26c-.26.74-1.25,1.34-1.78.77-.39-.41-.28-1.93-.31-2.38-.35.45-.91.85-1.21,1.21C285,174.56,285.39,172.4,285.39,170.85Z" transform="translate(-15.17 -16.76)" fill="#5c66f3" opacity="0.23"/><path d="M289.64,119.61a.76.76,0,0,0-.12-.5A.68.68,0,0,0,289,119a3.18,3.18,0,0,0-2.77,1.6,3.23,3.23,0,0,1,1.55,2.85c-.16,1.13-1.73,1.93-2.51,1.1-.43-.46-.49-1.23-1-1.54a1.22,1.22,0,0,0-1.61.71,3.52,3.52,0,0,0,0,2,4.85,4.85,0,0,1,3.56,1.75,2.8,2.8,0,0,1-1.37.46,1.9,1.9,0,0,0-1.27.63c-.28.4-.1,1.1.39,1.14a1.63,1.63,0,0,1,2.57,0c-.18.87-1,1.42-1.57,2.11s-.68,2,.16,2.27a3.93,3.93,0,0,0,1.48-1.93l1.23,0a3.47,3.47,0,0,1-.2,2.38c-.23.79-.28,1.79.39,2.26a2.24,2.24,0,0,0,2.19-.22,3.36,3.36,0,0,1-.38-2c.16-.68,1-1.23,1.57-.86s.51,1.14.5,1.79.26,1.51.92,1.49.89-.94.67-1.57a6.09,6.09,0,0,1-.71-1.85,2.75,2.75,0,0,1,3.75,2.51,2.57,2.57,0,0,0,.28-3.25,3.32,3.32,0,0,1-.52-.78,1.32,1.32,0,0,1,1-1.53,3.71,3.71,0,0,1,2,.21c.3-.68-.34-1.47-1.06-1.62a3.85,3.85,0,0,0-2.14.43c0-.71.8-1.09,1.43-1.43s1.2-1.23.66-1.7-1.34.24-1.66.9-.87,1.5-1.55,1.25-.27-1.5.33-2,1.38-1.29,1-2c-.31-.39-1-.11-1.29.25s-.73.83-1.23.74-.71-.8-.51-1.3a5.4,5.4,0,0,1,1-1.27,1.11,1.11,0,1,0-1.72-1.11,11.72,11.72,0,0,0-.37,1.58c-.18.51-.87.93-1.24.53s-.19-1.34-.22-1.66c-.24.31-.63.59-.84.85C289.38,122.2,289.64,120.69,289.64,119.61Z" transform="translate(-15.17 -16.76)" fill="#5c66f3" opacity="0.46"/><path d="M249.15,87.73a.75.75,0,0,0-.12-.49.63.63,0,0,0-.48-.15,3.18,3.18,0,0,0-2.77,1.6,3.21,3.21,0,0,1,1.55,2.85c-.16,1.12-1.73,1.92-2.51,1.09-.43-.45-.49-1.22-1-1.54a1.24,1.24,0,0,0-1.61.72,3.61,3.61,0,0,0-.05,2,4.84,4.84,0,0,1,3.56,1.74,2.68,2.68,0,0,1-1.36.47,1.89,1.89,0,0,0-1.27.62c-.28.4-.1,1.11.39,1.14a1.64,1.64,0,0,1,2.57,0c-.18.88-1,1.42-1.57,2.12s-.68,2,.16,2.27a4,4,0,0,0,1.48-1.94l1.23,0a3.5,3.5,0,0,1-.2,2.39c-.23.78-.28,1.79.39,2.25a2.26,2.26,0,0,0,2.19-.21,3.4,3.4,0,0,1-.38-2c.16-.68,1-1.23,1.57-.86s.51,1.15.5,1.8.26,1.5.92,1.49.89-1,.67-1.58a5.9,5.9,0,0,1-.71-1.85,2.76,2.76,0,0,1,3.75,2.51,2.57,2.57,0,0,0,.28-3.25,3.26,3.26,0,0,1-.52-.77,1.33,1.33,0,0,1,1-1.54,3.93,3.93,0,0,1,2,.21c.3-.68-.34-1.47-1.06-1.61a3.68,3.68,0,0,0-2.14.43c0-.71.8-1.09,1.43-1.44s1.2-1.22.66-1.69-1.34.24-1.66.9-.87,1.5-1.55,1.24-.27-1.5.33-2,1.38-1.29,1-2c-.31-.39-1-.11-1.29.25s-.74.83-1.23.74-.71-.81-.51-1.31a5.35,5.35,0,0,1,1-1.26,1.44,1.44,0,0,0,.34-1.48,1.39,1.39,0,0,0-2.06.36,11.72,11.72,0,0,0-.37,1.58c-.18.51-.87.93-1.24.54s-.19-1.35-.22-1.67c-.24.32-.63.6-.84.85C248.89,90.32,249.15,88.81,249.15,87.73Z" transform="translate(-15.17 -16.76)" fill="#5c66f3" opacity="0.46"/><path d="M251.13,172.08a1.13,1.13,0,0,0,.41-.69,1,1,0,0,0-.37-.71,5.09,5.09,0,0,0-4.94-1.29c.29,1.8,0,3.89-1.44,5s-4.13.25-4.08-1.57c0-1,.81-1.95.55-2.91a2,2,0,0,0-2.63-1,5.67,5.67,0,0,0-2.26,2.17,7.73,7.73,0,0,1,2.1,6,4.4,4.4,0,0,1-2.07-1,3,3,0,0,0-2.16-.72c-.76.15-1.34,1.15-.83,1.73a2.63,2.63,0,0,1,2.93,2.89c-1.19.79-2.75.48-4.17.65s-3,1.49-2.36,2.76a6.33,6.33,0,0,0,3.86-.54l1.38,1.4c-.43,1.23-1.77,1.85-2.91,2.49s-2.32,1.73-2.08,3,1.58,1.81,2.74,2.21a5.28,5.28,0,0,1,1.83-2.73c1-.6,2.5-.31,2.76.78s-.7,1.88-1.45,2.6-1.38,2-.62,2.72,2.08-.07,2.52-1,.54-2.14,1.27-2.9a4.38,4.38,0,0,1,1.45,7.06,4.12,4.12,0,0,0,4-3.39,5.11,5.11,0,0,1,.28-1.46,2.12,2.12,0,0,1,2.89-.6,6.15,6.15,0,0,1,2.07,2.51c1.1-.43,1.26-2,.6-3a6,6,0,0,0-2.92-1.91c.79-.82,2.14-.34,3.24,0s2.74,0,2.65-1.19-1.8-1.23-2.9-.83-2.66.73-3.16-.33c-.4-1.24,1.37-2,2.67-1.95s3,.08,3.42-1.16c.09-.79-1-1.19-1.75-1.16s-1.76.12-2.22-.53.1-1.72.88-2.06a8.55,8.55,0,0,1,2.53-.35,2.25,2.25,0,0,0,2-1.3,2.2,2.2,0,0,0-2.74-1.89c-.83.26-1.41,1-2.19,1.38s-2,.08-2-.79c0-.63,1.29-1.74,1.62-2.13-.63.09-1.38,0-1.91,0C247.93,174.74,249.91,173.31,251.13,172.08Z" transform="translate(-15.17 -16.76)" fill="#5c66f3" opacity="0.25"/><path d="M244.14,125.1S224,171.45,237.7,206.4l-16.2-7.6s7.6-56,.69-69.51l7.05,22.65,6-37.46-2.44,32.35S238.74,130.65,244.14,125.1Z" transform="translate(-15.17 -16.76)" fill="#5c66f3" opacity="0.39"/><path d="M267.22,101.49c1.09.6,2.45.68,3.43,1.46,2.47,2,.63,6.33,2.55,8.83.81,1,2.12,1.54,3.14,2.37a5.73,5.73,0,0,1-6,9.63c-2.41-1.11-4.78-3.92-7.08-2.61-.92.53-1.42,1.61-2.33,2.15-1.39.85-3.15.19-4.72-.23a15.13,15.13,0,0,0-14.74,4.29l-4.49.52-.41,4.5a7.65,7.65,0,0,0-8.61-.64l-5.74-2.47a6.27,6.27,0,0,1-3.71,7,6.61,6.61,0,0,1-7.65-2.44,350.55,350.55,0,0,1,.61-58.32c7.61-.95,17.94-2.37,25.38.08,5.11,1.69,6.42,5.07,9.79,8.72,4.53,4.92,8.82,3.23,13.68,6.15C264.39,93,263.09,99.23,267.22,101.49Z" transform="translate(-15.17 -16.76)" fill="#5c66f3" opacity="0.23"/><path d="M243.73,324.58a177.56,177.56,0,0,0-20.87-1.42c-17.27,0-34.19,3.35-51.08,7.19-2.56-1.23-5.18-2.51-7.8-3.82-10.53-5.27-20.93-11-26.09-15.4-12.69-10.78-7-27.36-7-27.36L164,285.94,195.34,288s26.28,4.11,33.26,11.72C232.46,303.93,239.05,315,243.73,324.58Z" transform="translate(-15.17 -16.76)" fill="#080608"/><path d="M195.93,214.32l-3-16.72a36.3,36.3,0,0,0-1.67-6.76,23.93,23.93,0,0,0-8.82-10.6,58.1,58.1,0,0,0-12.5-6.22c-5.78-2.25-13,.57-19.07,1.9-5.38,1.18-11,2.46-15.31,5.83-4.55,3.53-7.23,9-8.68,14.58s-1.81,11.36-2.6,17.07a113.76,113.76,0,0,1-5.52,22.48c-.81,2.24-1.69,4.56-1.49,6.93s1.51,4.59,2.78,6.66l9,14.63c-4.73,5.61-3.82,15.06,1.88,19.67,4.68,3.78,11.16,4.11,17.16,4.28l40.52,1.13c2.33.07,4.82.09,6.77-1.19,3-2,3.49-6.21,3.37-9.84a74.15,74.15,0,0,0-2.49-16.81c-.36-1.37-.77-2.85-.24-4.17a7.38,7.38,0,0,1,2.41-2.63,24.68,24.68,0,0,0,8.78-20.19C206.71,226.74,202.36,218.41,195.93,214.32Z" transform="translate(-15.17 -16.76)" fill="#5c66f3"/><path d="M147.65,221.55a48.51,48.51,0,0,0-1.41-23.68,141.49,141.49,0,0,1,.45,20c-.15,3.07-.44,6.27-2,8.92a19.28,19.28,0,0,0-3.7-6.69,20.21,20.21,0,0,1-.45,7.4,8.5,8.5,0,0,1-4.62,5.54c1,1.41,2.79,1.93,4.37,2.62s3.24,1.92,3.24,3.65c0,.81-.38,1.67,0,2.39.67,1.3,2.63.59,3.81-.27,2.48-1.8,14.09-7.91,12-11.59s-9.76,1.43-12.32,2.11C145.68,228.81,147.05,224.71,147.65,221.55Z" transform="translate(-15.17 -16.76)" fill="url(#linear-gradient-3)"/><path d="M147.26,264.86l-17-.84a2.66,2.66,0,0,0-1.19.13c-1.27.58-.88,2.61-1.84,3.61,7-.48,13.75,1.89,20.31,4.25,2.14.77,4.65,1.52,6.59.32a11,11,0,0,1,2-1.33,4.51,4.51,0,0,1,3.25.6A192.72,192.72,0,0,1,177,281.1a2.88,2.88,0,0,0,2.4.61,2.85,2.85,0,0,0,1.13-1l4.78-6.08a1.58,1.58,0,0,0,.34-.62c.08-.48-.3-.9-.64-1.23a106.2,106.2,0,0,1-12.88-15c-3.12-4.42-6.49-9.49-11.81-10.52-3.43-.66-11.17,1.15-13.07,4.52C146.69,252.69,148.13,264.9,147.26,264.86Z" transform="translate(-15.17 -16.76)" fill="url(#linear-gradient-4)"/><path d="M196.29,137c.47,11-1.9,22.16.74,32.82l-6,.57a13.74,13.74,0,0,0,0,3.14q-5.17.27-10.35.13c1.42,0,3.86-12.88,4.15-14.35,1-5,1.64-10.07,2.53-15.1.79-4.44,1.32-10.68,3.72-14.59C194.66,123.85,196.2,134.79,196.29,137Z" transform="translate(-15.17 -16.76)" fill="#32406a"/><path d="M193.74,152.24c.54,1.18,1.3,2.37,1.16,3.66-.26,2.28-3,3.22-4.61,4.84-2.77,2.74-2.34,7.58-5,10.45a8.38,8.38,0,0,1-6,2.4,24.65,24.65,0,0,1-6.58-1.06c-1.8,1.46-1.66,4.19-1.32,6.48s.59,5-1.12,6.56c-1.95,1.79-5.13.85-7.31-.65-3.94-2.72-6.7-6.86-8.6-11.25A99.5,99.5,0,0,1,150.1,160c-2.09-7.76-4.57-16.13-1.61-23.6,2.25-5.69,7.49-9.89,13.29-11.85s12.13-1.9,18.18-.89c4.51.75,12.44,2.88,13.58,8.17C195,138.61,190.62,145.48,193.74,152.24Z" transform="translate(-15.17 -16.76)" fill="#fdc0ad"/><path d="M172.78,141.06a5.55,5.55,0,0,0-3.16.87,4.39,4.39,0,0,0-1.07,1.72,54.23,54.23,0,0,0-2.81,32.9,38.42,38.42,0,0,1-7.69-3.23c.62,1.18-1.25,2.28-2.5,1.82s-2.1-1.66-3.32-2.19a8.81,8.81,0,0,0-2.34-.51,18.2,18.2,0,0,1-9.92-4.82c-.68-6.72-4.53-12.68-6.24-19.22A46.81,46.81,0,0,1,132.46,137a26.53,26.53,0,0,1,.93-8.38c1.1-3.46,3.36-6.42,5.59-9.29a25.61,25.61,0,0,1,4.87-5.2,18.73,18.73,0,0,1,6.71-2.87c8.12-2,16.71-.91,24.78,1.28,5.1,1.38,10.21,3.29,14.19,6.76s6.67,8.81,5.83,14a11.85,11.85,0,0,0-5.86-6.51c-3.82-1.64-2.95,1.77-4,4.44A15.85,15.85,0,0,1,172.78,141.06Z" transform="translate(-15.17 -16.76)" fill="#32406a"/><path d="M205.62,64.72V209.24l117.3,55,4.36-189.5ZM309.3,240l-92.54-43.4V76.08l95.83,10Z" transform="translate(-15.17 -16.76)" fill="#5c66f3"/><path d="M205.62,64.72V209.24l117.3,55,4.36-189.5ZM309.3,240l-92.54-43.4V76.08l95.83,10Z" transform="translate(-15.17 -16.76)" fill="url(#linear-gradient-5)"/><path d="M201.23,214.78a85.93,85.93,0,0,0-18.75,9.58,30.42,30.42,0,0,0-18.29-9.45l-.89,2.17a3.78,3.78,0,0,1-1.68-1,26.58,26.58,0,0,0-3,4.51A36.25,36.25,0,0,1,166.45,235a11.61,11.61,0,0,0,1.26,3.42,3.27,3.27,0,0,0,3.07,1.61,4.54,4.54,0,0,0,1.58-.69q10.71-6.33,21.82-12c3-1.53,8.46-3,10.72-5.46a2.82,2.82,0,0,0,.55-3.42c-1.23-2.22-2.66-.66-4.5-.07C201,217.25,201.12,216,201.23,214.78Z" transform="translate(-15.17 -16.76)" fill="#fff"/><path d="M156.53,219.31A283.87,283.87,0,0,0,153.24,260a4.74,4.74,0,0,0,.65,3,5,5,0,0,0,2.71,1.39,96.31,96.31,0,0,1,29.65,13.78,29.58,29.58,0,0,1,14.11-14.55,7.11,7.11,0,0,0,2.77-1.83,6.42,6.42,0,0,0,1-3.05q2.85-20.19,5.69-40.39c0,.37-13.73,5.13-15.19,5.92-3.66,2-9.61,8.25-14,8-3.65-.24-5.3-4.42-8.07-6.48C168,222.34,162,220.29,156.53,219.31Z" transform="translate(-15.17 -16.76)" fill="#f05e5f"/><path d="M154.22,232.25c.87.54.07,2,.44,2.93a2,2,0,0,0,.73.82c1.87,1.33,4.38,1.18,6.55,1.9.8.26,1.7,1,1.42,1.76a1.77,1.77,0,0,1-1.13.87l-2.86,1.15,3.51,0c.53,0,1.21.13,1.3.64s-.4.81-.82,1c-1.19.62-2.42,1.19-3.66,1.71a19.22,19.22,0,0,1,2.84-.12c.52,0,1.21.21,1.21.74s-.44.65-.81.81l-7.42,3.17c-3.46,1.48-7,3-10.71,3.4A1.46,1.46,0,0,1,144,253a1.52,1.52,0,0,1-.63-.85,17.18,17.18,0,0,1-1.23-6.21,2,2,0,0,1,.23-1.14,2.42,2.42,0,0,1,.9-.67,8.17,8.17,0,0,0,3.17-3.19c1-1.83,1.38-3.91,2.73-5.57S152.37,233,154.22,232.25Z" transform="translate(-15.17 -16.76)" fill="#fdc0ad"/><path d="M201.32,234.56c-.56.14-1.25.55-1.08,1.1.1.32.46.48.77.59l3.92,1.45a11.37,11.37,0,0,0-4.37.51c-.22.07-.47.19-.48.41s.22.39.43.49l3.93,1.92a6.32,6.32,0,0,0-3.36.73c-.22.12-.46.3-.46.55s.2.4.39.53a11.57,11.57,0,0,0,2.48,1.32,2.56,2.56,0,0,0-1.35.18.86.86,0,0,0-.38,1.16,1,1,0,0,0,.38.31l3.25,2a1.37,1.37,0,0,0,1.2.28c.46-.18.57-.77.62-1.26.06-.76.11-1.52.14-2.28a7.83,7.83,0,0,1,.21-1.87,19.62,19.62,0,0,1,.82-1.89c.7-1.72.56-4.61-.89-6S203,234.14,201.32,234.56Z" transform="translate(-15.17 -16.76)" fill="#fdc0ad"/><polygon points="243.74 63.7 243.74 201.54 251.28 206.67 251.28 63.7 243.74 63.7" fill="#5c66f3"/><polygon points="295.66 142.62 201.59 120.22 201.59 111.19 295.87 133.65 295.66 142.62" fill="#5c66f3"/><polygon points="295.87 133.65 295.66 142.62 251.28 132.05 251.28 206.67 243.74 201.54 243.74 130.26 201.59 120.22 201.59 111.19 243.74 121.23 243.74 63.7 251.28 63.7 251.28 123.02 295.87 133.65" fill="url(#linear-gradient-6)"/><path d="M142.62,336.85c-3.82.76-7.65,1.46-11.49,2.06a156.51,156.51,0,0,1-26.42,1.94c-23.17-13.37-53-32.09-56.27-41.77-5.26-15.38,3.43-24.57,9.37-31.63A32.76,32.76,0,0,0,68.74,289.2C81.26,300.49,125.45,326.78,142.62,336.85Z" transform="translate(-15.17 -16.76)" fill="url(#linear-gradient-7)"/><polygon points="228.97 62.17 201.59 111.19 215.28 114.45 243.25 69.5 243.74 63.7 228.97 62.17" fill="#5c66f3" opacity="0.23"/><polygon points="281.65 67.64 251.28 123.82 264.97 127.08 297.17 74.79 297.66 69 281.65 67.64" fill="#5c66f3" opacity="0.23"/><polygon points="287.23 139.59 251.28 203.91 264.97 207.17 295.53 157.54 295.66 142.62 287.23 139.59" fill="#5c66f3" opacity="0.23"/><polygon points="235.19 128.23 201.59 179.82 213.85 185.69 243.62 144.03 243.74 130.26 235.19 128.23" fill="#5c66f3" opacity="0.23"/><path d="M243.39,176.92c-.23-.09-.34-.34-.48-.53a1.45,1.45,0,0,0-1.94-.23,1.9,1.9,0,0,0-.65,1.93,1.22,1.22,0,0,1,0,.84.9.9,0,0,1-.34.3,5.09,5.09,0,0,1-1.24.49,1.7,1.7,0,0,0-1,.47,2.56,2.56,0,0,0-.24,1,1.7,1.7,0,0,1-.93,1.2c-.3.15-.67.21-.89.47a1,1,0,0,0-.2.59,5.86,5.86,0,0,0,.19,1.49,1.78,1.78,0,0,1-.25,1.43c-.22.26-.58.55-.42.85a.59.59,0,0,0,.24.2,6.33,6.33,0,0,0,2.1.77c.28,0,.61.12.73.38a1.17,1.17,0,0,1,0,.56,1.73,1.73,0,0,0,.64,1.42.67.67,0,0,0,.33.15c.46.06.72-.65,1.18-.67a.88.88,0,0,1,.51.2,5.52,5.52,0,0,1,1.5,1.3c.22.31.4.68.76.79a1.31,1.31,0,0,0,.91-.19c.51-.26,1.1-.61,1.13-1.18a1,1,0,0,1,0-.35.44.44,0,0,1,.52-.2,1.15,1.15,0,0,1,.49.33c.38-.14.42-.67.26-1a10.62,10.62,0,0,1-.6-1,1.68,1.68,0,0,1,.38-1.54,4.59,4.59,0,0,1,1.32-1,1.46,1.46,0,0,0,.53-.42,1.3,1.3,0,0,0-.15-1.38,3.94,3.94,0,0,1-.71-1.28.69.69,0,0,1,.06-.47.94.94,0,0,1,.3-.26l1.1-.7a.33.33,0,0,0,.15-.16.3.3,0,0,0,0-.22c-.44-.77-1.57-1.2-1.55-2.09,0-.53.44-1.15.06-1.52a5.67,5.67,0,0,0-1.15-.59c-.25-.15-.48-.48-.74-.59C244.59,176.1,244.13,177.11,243.39,176.92Z" transform="translate(-15.17 -16.76)" fill="#5c66f3" opacity="0.36"/><path d="M243,178.08a.85.85,0,0,0-1,.31c-.23.28-.35.63-.56.93-.69,1-2.16,1.32-2.85,2.35a2.2,2.2,0,0,0,.1,2.53.89.89,0,0,0,.56.36A1,1,0,0,0,240,184c.43-.63.73-1.34,1.15-2a2.84,2.84,0,0,1,1.79-1.33c.91-.15,1.91.36,2.71-.09,1-.54,1.19-2.56.2-3.18a1.35,1.35,0,0,0-1.44.17C243.76,178.05,243.73,178.45,243,178.08Z" transform="translate(-15.17 -16.76)" fill="#5c66f3" opacity="0.79"/><path d="M244.12,182.76a2.17,2.17,0,0,0-1.26,1.43,2,2,0,0,1-.2.63c-.26.41-.84.42-1.33.43a9.25,9.25,0,0,0-2.66.48,1,1,0,0,0-.67.47.79.79,0,0,0,.09.7c.65,1.1,2.4.94,3.22,1.91a8.69,8.69,0,0,1,.55.88,1.09,1.09,0,0,0,.84.55c.5,0,.84-.51,1-1a8,8,0,0,0,.2-2.5,1.23,1.23,0,0,0,1.41-.21,2.26,2.26,0,0,0,.47-.86C246.22,184.3,246.27,181.89,244.12,182.76Z" transform="translate(-15.17 -16.76)" fill="#5c66f3" opacity="0.79"/><path d="M283.22,181.15a2.85,2.85,0,0,0,.55,1.67,1.53,1.53,0,0,1,.34.94,2,2,0,0,1-.26.6,2.16,2.16,0,0,0,.1,2.06c.32.51.87.91,1,1.5a2.74,2.74,0,0,0,.16.7,1.31,1.31,0,0,0,.91.51,3,3,0,0,0,2.2-.18,1.48,1.48,0,0,1,.68-.35.83.83,0,0,1,.64.42,2.52,2.52,0,0,0,.5.62,1.63,1.63,0,0,0,.76.21,3.36,3.36,0,0,0,1,0,1.8,1.8,0,0,0,1-2.82,4.56,4.56,0,0,0-.79-.73.52.52,0,0,1-.21-.23c-.12-.26.11-.53.22-.79a1.8,1.8,0,0,0-.15-1.32,2.46,2.46,0,0,1-.31-1.31c.08-.5.49-.88.68-1.35a.28.28,0,0,0,0-.2.29.29,0,0,0-.22-.14,12.18,12.18,0,0,0-1.9-.33.61.61,0,0,1-.43-.17.45.45,0,0,1-.08-.23c-.08-.73.37-1.52-.51-1.92a2.05,2.05,0,0,0-1.68,0c-.37.19-.64.55-1,.68a1.63,1.63,0,0,1-.82,0,1.18,1.18,0,0,0-1.12.26A3,3,0,0,0,283.22,181.15Z" transform="translate(-15.17 -16.76)" fill="#5c66f3" opacity="0.36"/><path d="M285.63,180.66c-.6.91.09,2.24-.48,3.16a1.84,1.84,0,0,0-.31.52,1.14,1.14,0,0,0,.17.71l.32.66c.12.25.32.54.59.49a.46.46,0,0,0,.22-.11,2.24,2.24,0,0,0,.59-2A3.29,3.29,0,0,1,287,182c.4-.57,1.22-.87,1.34-1.56a.58.58,0,0,0-.06-.39C287.8,179.29,286,180.13,285.63,180.66Z" transform="translate(-15.17 -16.76)" fill="#5c66f3" opacity="0.36"/></svg>