<svg id="Layer_1" data-name="Layer 1" xmlns="http://www.w3.org/2000/svg" xmlns:xlink="http://www.w3.org/1999/xlink" viewBox="0 0 397.2 282.5"><defs><linearGradient id="linear-gradient" x1="322.78" y1="125.03" x2="486.45" y2="143.11" gradientUnits="userSpaceOnUse"><stop offset="0.01" stop-color="#fff"/><stop offset="0.13" stop-color="#fff" stop-opacity="0.69"/><stop offset="1" stop-color="#fff" stop-opacity="0"/></linearGradient><linearGradient id="linear-gradient-2" x1="329.08" y1="238.54" x2="330.03" y2="173.83" gradientUnits="userSpaceOnUse"><stop offset="0.01"/><stop offset="0.13" stop-opacity="0.69"/><stop offset="1" stop-opacity="0"/></linearGradient><linearGradient id="linear-gradient-3" x1="-30.01" y1="179.25" x2="99.35" y2="124.33" xlink:href="#linear-gradient-2"/><linearGradient id="linear-gradient-4" x1="340.64" y1="98.73" x2="348.25" y2="321.39" xlink:href="#linear-gradient-2"/><linearGradient id="linear-gradient-5" x1="321.85" y1="106.53" x2="343.42" y2="138.56" xlink:href="#linear-gradient"/><linearGradient id="linear-gradient-6" x1="321.14" y1="198.73" x2="365.97" y2="199.15" xlink:href="#linear-gradient-2"/></defs><title>1</title><path d="M434.23,210.27c-.14,1.86-.35,3.73-.65,5.59-1.31,8.07-4.17,15.74-7.57,23.21-1.84,4.06-3.84,8.05-5.84,12-9.36,18.53-19.39,37.65-36,50.1-23.51,17.62-55.66,18.4-84.62,13.44-10.85-1.86-21.59-4.41-32.33-6.94-17.93-4.23-35.85-8.4-54.21-9.17-40.07-1.67-82.34,12.65-119.12-3.33C70.73,285.1,53.55,263.82,45,240.07a136.48,136.48,0,0,1-7.66-42.59,192.82,192.82,0,0,1,1.88-32.22c.81-5.79,1.86-11.59,3.19-17.33q1-4.38,2.21-8.7c5.51-19.52,14.36-38,27.47-53A100.45,100.45,0,0,1,84.42,74.33C114.5,50,155.59,45.69,194.15,42.38,233.05,39,275,30.15,313.43,37.74A113.92,113.92,0,0,1,356.64,55.6c36.33,25,56.77,67.3,70.08,109.36C431.36,179.64,435.36,195,434.23,210.27Z" transform="translate(-37.22 -34.75)" fill="#5c66f3" opacity="0.18" style="isolation:isolate"/><path d="M434.23,210.27H313.43V37.74A113.92,113.92,0,0,1,356.64,55.6c36.33,25,56.77,67.3,70.08,109.36C431.36,179.64,435.36,195,434.23,210.27Z" transform="translate(-37.22 -34.75)" fill="#5c66f3" opacity="0.18" style="isolation:isolate"/><path d="M434.23,210.27H313.43V37.74A113.92,113.92,0,0,1,356.64,55.6c36.33,25,56.77,67.3,70.08,109.36C431.36,179.64,435.36,195,434.23,210.27Z" transform="translate(-37.22 -34.75)" fill="url(#linear-gradient)"/><rect x="270.81" y="174.76" width="117.98" height="29.55" fill="#5c66f3"/><rect x="270.81" y="174.76" width="117.98" height="29.55" fill="url(#linear-gradient-2)"/><path d="M201.35,202.73c7.29,3.19,14.47,6.72,22.12,8.91s15.89,3.43,23.74,4.8a89.76,89.76,0,0,0,24.71.87c2-.21,4.09-.56,5.42-2a1.29,1.29,0,0,0,.36-.64c.13-.78-.91-1.17-1.7-1.26l-11.77-1.3c-2.22-.25-4.57-.54-6.32-1.93a78.37,78.37,0,0,0,34.2-6.25,4,4,0,0,0,1.68-1.12,1.36,1.36,0,0,0-.08-1.84,2,2,0,0,0-1.3-.3h-26c-2.63,0-5.36,0-7.76-1.1a162.22,162.22,0,0,0,30.74-1.85,36.79,36.79,0,0,0,9.21-2.36c1-.44,2.08-1.14,2.15-2.22.1-1.61-2-2.34-3.59-2.49-6-.57-12-.54-18-.74-5.42-.19-12,0-17.08-2,.37-1.95,24.55.27,27.67.27,4,.14,8.34.19,11.59-2.14a3,3,0,0,0,1.43-2c.19-1.71-1.92-2.67-3.61-3-6.13-1.15-12.39-1.19-18.59-1.77a108.94,108.94,0,0,1-42.14-12.89,7.1,7.1,0,0,1-3.33-2.92c-1.11-2.39.56-5.09,2.15-7.19l10.4-13.76c1.35-1.78,2.77-3.94,2.1-6.07-.93-3-5.24-3.31-7.84-1.64s-4.14,4.53-6.28,6.76c-7.91,8.26-21.77,6.32-31.69,12-3.43,2-6.33,4.84-9.9,6.57-7.85,3.81-17.17,1.44-25.5-1.19q-25.71-8.1-50.57-18.64c-4.71-2-9.77-4.11-14.79-3.1C95.83,138.73,91.44,146.2,88.3,153c-1,2.08-1.91,4.26-1.82,6.55.16,4.42,4,7.72,7.75,10.13,16.59,10.74,34,11.85,52.79,15.73A273.93,273.93,0,0,1,201.35,202.73Z" transform="translate(-37.22 -34.75)" fill="#cc624e"/><path d="M122.92,131.82a7.12,7.12,0,0,1-1.45,4c-1,1.6-2,3.2-3,4.79q-8.81,14.28-17.63,28.55c-.51.83-1.06,1.68-1.65,2.49-.19.25-.37.5-.56.74-1.91,2.43-4.25,4.42-7.21,4.43a12.26,12.26,0,0,1-5.06-1.48,210.78,210.78,0,0,1-44-27.38q1-4.38,2.21-8.7c5.51-19.52,14.36-38,27.47-53,3.87,2.15,7.71,5.84,11.78,10,11.19,11.46,24.74,20.29,36.4,31.25C121.5,128.71,122.82,130.09,122.92,131.82Z" transform="translate(-37.22 -34.75)" fill="#5c66f3"/><path d="M122.92,131.82a7.12,7.12,0,0,1-1.45,4c-1,1.6-2,3.2-3,4.79q-8.81,14.28-17.63,28.55c-.51.83-1.06,1.68-1.65,2.49-.19.25-.37.5-.56.74-1.91,2.43-4.25,4.42-7.21,4.43a12.26,12.26,0,0,1-5.06-1.48,210.78,210.78,0,0,1-44-27.38q1-4.38,2.21-8.7c5.51-19.52,14.36-38,27.47-53,3.87,2.15,7.71,5.84,11.78,10,11.19,11.46,24.74,20.29,36.4,31.25C121.5,128.71,122.82,130.09,122.92,131.82Z" transform="translate(-37.22 -34.75)" fill="url(#linear-gradient-3)"/><path d="M202.16,146.11a9.47,9.47,0,0,0-1.81-11.46c-1.9-1.71-4.41-2.54-6.81-3.4s-4.88-1.89-6.53-3.85-2.17-5.1-.47-7,4.4-1.85,6.75-1.31a19.76,19.76,0,0,1,10.46,6.28c3.33,3.85,5.32,9.13,9.81,11.54,1.86-2.2,5.38-2.43,8-3.65,3.76-1.76,5.58-6,6.74-10,3.45-11.93,3.83-24.49,4.19-36.9l1.37-47.6a86.87,86.87,0,0,1,20.82-.68c.36,4.23-1.57,8.27-3.12,12.23-6.8,17.36-6.76,36.53-6.64,55.18a45.93,45.93,0,0,0,.77,9.8c3.49,1.8,7.49-1.17,10.08-4.12s5.74-6.44,9.61-5.81c1.43,4.05-1.18,8.45-4.34,11.36s-7,5.19-9.33,8.82-2.09,9.43,1.8,11.26c4.37,2.05,8.86-2.15,12.6-5.21a32.09,32.09,0,0,1,13.34-6.45,4.11,4.11,0,0,1,2.17-.06c2.53.85,1.43,4.77-.51,6.62-3.26,3.11-7.49,5-11.18,7.58s-7,6.43-7,10.94a113.35,113.35,0,0,0,19.38-3.07c1.06,4.4-3.45,8.16-7.75,9.59s-9.23,2-12.32,5.27c-4,4.31-3.39,11.84-8,15.53a13.81,13.81,0,0,1-6.72,2.44c-9.55,1.45-19.69.05-28-4.88S203.3,155.7,202.16,146.11Z" transform="translate(-37.22 -34.75)" fill="#5c66f3" opacity="0.36" style="isolation:isolate"/><path d="M207.31,201.09c8,.13,15.95.6,23.85-.33a134.25,134.25,0,0,0,18.12-3.84l23.45-6.1c3.45-.9,7-1.34,9.94-3.51a26.45,26.45,0,0,0,6.32-6.73,3.82,3.82,0,0,0,.73-1.74,1.45,1.45,0,0,0-.9-1.53,2.24,2.24,0,0,0-1.27.15c-9.13,3.06-18.32,6-27.77,7.83A11.16,11.16,0,0,1,264,183c10.18-3.72,20.3-7.88,29.23-14a9.07,9.07,0,0,0,2.66-2.46,3.31,3.31,0,0,0,.21-3.45l-38.35,11.7,24.82-11.51c4.58-2.13,9.27-4.33,12.77-8a2.4,2.4,0,0,0,.82-1.48,1.74,1.74,0,0,0-1.58-1.6,5,5,0,0,0-2.39.44c-11.73,4.21-23.4,8.78-35.63,11.18L279,155.39c4.5-1.7,9.06-3.42,13-6.24a2.69,2.69,0,0,0,1.36-1.82,1.89,1.89,0,0,0-1.26-1.72,5,5,0,0,0-2.25-.21c-10.2.75-19.48,6.13-29.53,8-5.59,1.06-11.33,1-17,1-4,0-7.94,0-11.91-.25-2.51-.13-6.06-.53-8-2.33s-1.45-4.91-.8-7.46l4.29-16.71c.55-2.16,1-4.7-.41-6.41-2-2.36-6.11-1-7.87,1.52s-2.07,5.78-3.18,8.66c-4.11,10.67-17.64,14.23-24.59,23.31-2.41,3.15-4,6.91-6.6,9.88-5.78,6.54-15.29,8-24,8.75q-26.85,2.44-53.86,2.32c-5.11,0-10.59,0-14.83,2.85-6.24,4.21-7.41,12.79-7.67,20.32-.08,2.28-.11,4.67.85,6.74,1.86,4,6.71,5.57,11.06,6.35,19.45,3.51,36-2.2,54.77-5.87A273.34,273.34,0,0,1,207.31,201.09Z" transform="translate(-37.22 -34.75)" fill="#f38a6b"/><path d="M99.25,172.5a1,1,0,0,1,0,.17c0,1.12-.09,2.23-.22,3.34A86.62,86.62,0,0,1,96,190q-2.83,10.24-5.68,20.47-1.48,5.4-3,10.8a1.07,1.07,0,0,1-.37.66,1.1,1.1,0,0,1-1,0,249.23,249.23,0,0,1-47.62-23.73c-.34-.22-.68-.44-1-.67a192.82,192.82,0,0,1,1.88-32.22c.81-5.79,1.86-11.59,3.19-17.33q1-4.38,2.21-8.7c4.5.39,11.49,7.46,14.59,9.5a214.42,214.42,0,0,0,29.45,16.2c2.44,1.1,4.91,2.15,7.39,3.16a5.23,5.23,0,0,1,2.82,2,3.55,3.55,0,0,1,.4,1.57A6.47,6.47,0,0,1,99.25,172.5Z" transform="translate(-37.22 -34.75)" fill="#5c66f3"/><path d="M426,239.07c-1.84,4.06-3.84,8.05-5.84,12-9.36,18.53-19.39,37.65-36,50.1-23.51,17.62-55.66,18.4-84.62,13.44-10.85-1.86-21.59-4.41-32.33-6.94V239.07Z" transform="translate(-37.22 -34.75)" fill="#5c66f3"/><path d="M426,239.07c-1.84,4.06-3.84,8.05-5.84,12-9.36,18.53-19.39,37.65-36,50.1-23.51,17.62-55.66,18.4-84.62,13.44-10.85-1.86-21.59-4.41-32.33-6.94V239.07Z" transform="translate(-37.22 -34.75)" fill="url(#linear-gradient-4)"/><path d="M376.2,239.07H358.84A15.09,15.09,0,0,1,344,221.49l8.28-49.69a15.1,15.1,0,0,1,14.89-12.61h0A15.1,15.1,0,0,1,382,171.57l9.08,49.69A15.1,15.1,0,0,1,376.2,239.07Z" transform="translate(-37.22 -34.75)" fill="#5c66f3"/><rect x="324.73" y="110.8" width="11.1" height="16.49" fill="#5c66f3"/><rect x="324.73" y="110.8" width="11.1" height="16.49" fill="url(#linear-gradient-5)"/><rect x="309.39" y="107.47" width="30.88" height="3.33" fill="#5c66f3"/><rect x="309.39" y="109.92" width="2.25" height="4.68" fill="#5c66f3"/><path d="M391.29,224.42H343.75a15.37,15.37,0,0,1,.2-2.93l4.82-28.87h37.05l5.23,28.64A15.51,15.51,0,0,1,391.29,224.42Z" transform="translate(-37.22 -34.75)" fill="#fff"/><rect x="324.73" y="165.46" width="6.77" height="18.61" fill="#5c66f3"/><rect x="361.95" y="200.21" width="6.77" height="18.61" transform="translate(537.62 -190.57) rotate(90)" fill="#5c66f3"/><path d="M367.09,239.07h-8.25a15.1,15.1,0,0,1-15.09-14.65,15.37,15.37,0,0,1,.2-2.93l4.82-28.87,3.47-20.82a15.1,15.1,0,0,1,14.89-12.61,14.81,14.81,0,0,1,4.12.58,15.09,15.09,0,0,0-10.76,12L357,192.62l-4.82,28.87a15.37,15.37,0,0,0-.2,2.93A15.1,15.1,0,0,0,367.09,239.07Z" transform="translate(-37.22 -34.75)" fill="url(#linear-gradient-6)"/></svg>