<svg id="Layer_1" data-name="Layer 1" xmlns="http://www.w3.org/2000/svg" xmlns:xlink="http://www.w3.org/1999/xlink" viewBox="0 0 352.74 319.41"><defs><linearGradient id="linear-gradient" x1="231.06" y1="427.93" x2="287.2" y2="272.83" gradientUnits="userSpaceOnUse"><stop offset="0.01"/><stop offset="0.13" stop-opacity="0.69"/><stop offset="1" stop-opacity="0"/></linearGradient><linearGradient id="linear-gradient-2" x1="244.28" y1="197.51" x2="289.32" y2="253.97" xlink:href="#linear-gradient"/><linearGradient id="linear-gradient-3" x1="272.41" y1="136.02" x2="279.99" y2="136.02" xlink:href="#linear-gradient"/><linearGradient id="linear-gradient-4" x1="251.44" y1="156.93" x2="298.39" y2="121.41" xlink:href="#linear-gradient"/><linearGradient id="linear-gradient-5" x1="334.15" y1="233.37" x2="251.69" y2="158.52" xlink:href="#linear-gradient"/><linearGradient id="linear-gradient-6" x1="299.86" y1="240.13" x2="232.01" y2="195.11" xlink:href="#linear-gradient"/></defs><title>9</title><path d="M353.21,334.65c-2.36.08-4.69.05-7-.06-.39,0-.75,0-1.13-.06-.61,0-1.23-.08-1.84-.13-.79-.06-1.58-.13-2.38-.22s-1.59-.18-2.38-.28-1.57-.22-2.37-.34-1.58-.25-2.36-.39l-1.77-.32c-1.79-.35-3.57-.73-5.36-1.15l-2.26-.56c-.78-.19-1.56-.4-2.33-.61l-2.26-.63-.28-.08c-.7-.21-1.41-.41-2.1-.63-1.19-.36-2.39-.73-3.58-1.12l-1.88-.62c-6.31-2.1-12.56-4.48-18.77-6.93l-3.31-1.3a3.52,3.52,0,0,1-.39-.16l-3.31-1.3c-3.32-1.3-6.63-2.59-9.93-3.84-25-9.4-50.66-15.43-75.57-4.39l-4.92,2.16c-1.07.47-2.16.94-3.23,1.39l-.31.14-1.79.76c-1.19.51-2.38,1-3.58,1.49-1.57.65-3.12,1.28-4.7,1.89l-2,.78c-1.38.53-2.77,1-4.14,1.54l-3.35,1.16-.79.26-1.91.62-2,.61c-1.42.43-2.86.84-4.29,1.24l-3.63.93-.77.18-1.76.4-.08,0-2.07.43-2.12.41-2.14.37c-.71.12-1.43.23-2.15.33q-2.16.32-4.35.54c-.68.07-1.35.14-2,.19l-1.78.14-1,.07-1.9.09-1.58.06-1,0a110.25,110.25,0,0,1-11.94-.43q-2.31-.21-4.62-.54c-.66-.09-1.31-.19-2-.31l-.42-.07-1.21-.22c-.47-.08-.93-.17-1.39-.27-.73-.14-1.44-.3-2.17-.47-.52-.12-1.06-.24-1.58-.38-.25-.05-.48-.11-.72-.18s-.77-.19-1.15-.3l-1.71-.48L106,324c-.68-.2-1.35-.41-2-.63l-.37-.13c-.5-.16-1-.32-1.48-.5s-.88-.3-1.31-.46l-.74-.28-1.39-.53c-.58-.23-1.15-.46-1.71-.7l-.29-.12c-.62-.26-1.23-.53-1.83-.8s-.93-.42-1.38-.65-1-.48-1.52-.72c-2.1-1-4.15-2.16-6.14-3.38-.65-.39-1.28-.79-1.92-1.2l-.39-.25L82,312.56c-.63-.43-1.25-.88-1.88-1.34s-1-.77-1.56-1.17c-.12-.09-.25-.19-.37-.3-.53-.4-1-.82-1.54-1.23l-.15-.13q-.75-.61-1.47-1.26l-.52-.46c-.48-.43-1-.87-1.42-1.32l-.09-.08c-.44-.43-.88-.86-1.31-1.3-.15-.13-.28-.27-.42-.41-.46-.47-.92-1-1.37-1.45s-1-1.06-1.43-1.61L68,300c-.35-.43-.71-.86-1.06-1.3s-.9-1.16-1.34-1.75l-.09-.12c-.42-.57-.83-1.16-1.23-1.75s-.83-1.25-1.23-1.88-.77-1.28-1.14-1.93q-1.23-2.14-2.26-4.41a51.57,51.57,0,0,1-2.15-5.46c-.53-1.64-1-3.31-1.38-5-3-13.47-.71-26.65,3.53-39.77,7.23-22.38,20.2-44.59,22.63-67.74a69.78,69.78,0,0,0,.26-11.48c-1.69-26.87-6.26-57.91,13.75-79.48,22.14-23.85,67.61-25,96.13-40.78,9.83-5.45,19.24-11.83,29.74-15.86C241.3,13.9,262.53,15,283,16.11c22.68,1.28,47.08,3.22,64.45,17.83,10.63,8.94,17.3,21.6,23.69,33.92,13.94,26.9,28.46,57.07,32.08,87.74.18,1.39.31,2.78.44,4.17,2.74,32.18-14.62,62-5.29,94.88,1.63,5.77,4,11.41,5.86,17.11a65.75,65.75,0,0,1,2.81,11.13c.19,1.3.33,2.62.4,3.95v.26C408.59,313.85,380,333.77,353.21,334.65Z" transform="translate(-54.75 -15.29)" fill="#5c66f3" opacity="0.18" style="isolation:isolate"/><path d="M404.25,271.76v31.31h-57.9v11.09H313.47V291.32h-24v27.74l-3.31-1.3c-3.32-1.3-6.63-2.59-9.93-3.84-25-9.4-50.66-15.43-75.57-4.39l-4.92,2.16c-1.07.47-2.16.94-3.23,1.39l-.31.14H170.87V303H120.3v11.09H87.43V291.25H59.64V236.59c7.23-22.38,20.2-44.59,22.63-67.74H92.52v22.84h22.63V155.53h63.06v35.29h25.53v22.84h22.63V177.5h59.31v-8.58h32.87v22.84h22.64V155.6h62.05c.18,1.39.31,2.78.44,4.17,2.74,32.18-14.62,62-5.29,94.88C400,260.42,402.35,266.06,404.25,271.76Z" transform="translate(-54.75 -15.29)" fill="#5c66f3" opacity="0.18" style="isolation:isolate"/><path d="M353.21,334.65c-2.36.08-4.69.05-7-.06-.39,0-.75,0-1.13-.06-.61,0-1.23-.08-1.84-.13-.79-.06-1.58-.13-2.38-.22s-1.59-.18-2.38-.28-1.57-.22-2.37-.34-1.58-.25-2.36-.39l-1.77-.32c-1.79-.35-3.57-.73-5.36-1.15l-2.26-.56c-.78-.19-1.56-.4-2.33-.61l-2.26-.63-.28-.08c-.7-.21-1.41-.41-2.1-.63-1.19-.36-2.39-.73-3.58-1.12l-1.88-.62c-6.31-2.1-12.56-4.48-18.77-6.93l-3.31-1.3a3.52,3.52,0,0,1-.39-.16l-3.31-1.3c-3.32-1.3-6.63-2.59-9.93-3.84-25-9.4-50.66-15.43-75.57-4.39l-4.92,2.16c-1.07.47-2.16.94-3.23,1.39l-.31.14-1.79.76c-1.19.51-2.38,1-3.58,1.49-1.57.65-3.12,1.28-4.7,1.89l-2,.78c-1.38.53-2.77,1-4.14,1.54l-3.35,1.16-.79.26-1.91.62-2,.61c-1.42.43-2.86.84-4.29,1.24l-3.63.93-.77.18-1.76.4-.08,0-2.07.43-2.12.41-2.14.37c-.71.12-1.43.23-2.15.33q-2.16.32-4.35.54c-.68.07-1.35.14-2,.19l-1.78.14-1,.07-1.9.09-1.58.06-1,0a110.25,110.25,0,0,1-11.94-.43q-2.31-.21-4.62-.54c-.66-.09-1.31-.19-2-.31l-.42-.07-1.21-.22c-.47-.08-.93-.17-1.39-.27-.73-.14-1.44-.3-2.17-.47-.52-.12-1.06-.24-1.58-.38-.25-.05-.48-.11-.72-.18s-.77-.19-1.15-.3l-1.71-.48L106,324c-.68-.2-1.35-.41-2-.63l-.37-.13c-.5-.16-1-.32-1.48-.5s-.88-.3-1.31-.46l-.74-.28-1.39-.53c-.58-.23-1.15-.46-1.71-.7l-.29-.12c-.62-.26-1.23-.53-1.83-.8s-.93-.42-1.38-.65-1-.48-1.52-.72c-2.1-1-4.15-2.16-6.14-3.38q-1-.57-1.92-1.2l-.39-.25L82,312.56c-.63-.43-1.25-.88-1.88-1.34s-1-.77-1.56-1.17c-.12-.09-.25-.19-.37-.3-.53-.4-1-.82-1.54-1.23l-.15-.13q-.75-.61-1.47-1.26l-.52-.46c-.48-.43-1-.87-1.42-1.32l-.09-.08c-.44-.43-.88-.86-1.31-1.3-.15-.13-.28-.27-.42-.41-.46-.47-.92-1-1.37-1.45s-1-1.06-1.43-1.61L68,300c-.35-.43-.71-.86-1.06-1.3s-.9-1.16-1.34-1.75l-.09-.12c-.42-.57-.83-1.16-1.23-1.75s-.83-1.25-1.23-1.88-.77-1.28-1.14-1.93q-1.23-2.14-2.26-4.41H407.46v.26C408.59,313.85,380,333.77,353.21,334.65Z" transform="translate(-54.75 -15.29)" fill="#5c66f3"/><path d="M196.84,294.28c-1.86.41-4.12,1.3-4.25,3.21-.16,2.45,3.17,3.32,5.63,3.32l48,.13a32,32,0,0,1,8.42.76c1.93.53,3.74,1.42,5.61,2.11,6.24,2.3,13,2.43,19.7,2.53q35.21.54,70.42,1.05c3.59.05,7.32.07,10.6-1.39-1.89-5.37-7.11-9-12.59-10.6s-11.27-1.43-17-1.43c-35.11,0-70-4.15-105.12-3.69C216.46,290.41,206.43,292.15,196.84,294.28Z" transform="translate(-54.75 -15.29)" fill="url(#linear-gradient)"/><path d="M261.48,237.29A60.57,60.57,0,0,0,262.71,248c2.91,12.25,13.06,21.49,17.68,33.2,1.57,4,2.85,6.79,7.05,8.39s4.77-2.42,3.54-5.72a164.2,164.2,0,0,1-5.86-19.53,56.2,56.2,0,0,0-2.6-9.12c-1.9-4.46-5.22-8.56-5.31-13.41-.07-3.61,1.69-7,2.93-10.35a37.77,37.77,0,0,0,1-22c-1.1-4.38-5.49-17.69-11.6-16.44-7.28,1.48-10,8.21-9.68,14.81C260.3,217.63,260.94,227.46,261.48,237.29Z" transform="translate(-54.75 -15.29)" fill="#7390a0"/><path d="M261.48,237.29A60.57,60.57,0,0,0,262.71,248c2.91,12.25,13.06,21.49,17.68,33.2,1.57,4,2.85,6.79,7.05,8.39s4.77-2.42,3.54-5.72a164.2,164.2,0,0,1-5.86-19.53,56.2,56.2,0,0,0-2.6-9.12c-1.9-4.46-5.22-8.56-5.31-13.41-.07-3.61,1.69-7,2.93-10.35a37.77,37.77,0,0,0,1-22c-1.1-4.38-5.49-17.69-11.6-16.44-7.28,1.48-10,8.21-9.68,14.81C260.3,217.63,260.94,227.46,261.48,237.29Z" transform="translate(-54.75 -15.29)" fill="url(#linear-gradient-2)"/><path d="M234.49,235.39q-1.32,4.1-2.33,8.21a285.37,285.37,0,0,1-8.35,29c-1.32,3.67-5.56,9.82-5.62,13.56s4.1,3.38,6.87.95c2.09-1.82,3.26-4.44,4.76-6.77,3-4.63,7.35-8.32,9.8-13.24,2.71-5.44,2.77-11.78,4.49-17.6,2.35-7.93,7.68-14.58,12.89-21,6-7.37,14.82-15.83,17.78-25,1.45-4.52.78-10.07-2.88-13.1-4-3.29-10.17-2.5-14.38.49s-6.85,7.66-9.19,12.26C243.12,213.33,238,224.29,234.49,235.39Z" transform="translate(-54.75 -15.29)" fill="#7390a0"/><path d="M251.46,109.39c-.53.38-1.16.78-1.22,1.43s.47,1.13.87,1.62c1.26,1.54,1.48,3.64,2.06,5.54s1.91,3.9,3.9,4c1.45.06,2.76-1,4.21-1a21.34,21.34,0,0,1,1,7.21c.08,3.66.25,7.32.49,11a5.84,5.84,0,0,0,3.14-1.16l2.3-1.39a5.51,5.51,0,0,0,3.31-6l.13-7.21a69.45,69.45,0,0,0-.12-7.07c-.16-2-.49-3.88-.82-5.8l-1.39-8.13c-.31-1.82-.67-3.76-1.93-5.11-1.71-1.84-4.5-2.05-7-2a6.14,6.14,0,0,0-3.26.72,4.59,4.59,0,0,0-1.29,1.38c-1.4,2.18-1,4.07-1.14,6.45A7.86,7.86,0,0,1,251.46,109.39Z" transform="translate(-54.75 -15.29)" fill="#fdc0ad"/><path d="M251.75,113.61a.59.59,0,0,0-.43.12.53.53,0,0,0-.08.43,18.73,18.73,0,0,0,2.74,8.3,2.08,2.08,0,0,0,.72.78,2.22,2.22,0,0,0,2-.3l5.12-2.56a20.89,20.89,0,0,0,6.44-4.32l-6.74,2.54-1.05-4.88,5.41-1.69c.46-.14,1-.48.89-.94.13.43-7.1,2-7.78,2.06A53.08,53.08,0,0,1,251.75,113.61Z" transform="translate(-54.75 -15.29)" fill="#fff"/><path d="M280,146.29a8.45,8.45,0,0,1-3.27-2.85c-3.61-5-3.65-11.43-4.31-17.7,2.36,4.65,3.11,10,4.92,15A34.9,34.9,0,0,0,280,146.29Z" transform="translate(-54.75 -15.29)" fill="url(#linear-gradient-3)"/><path d="M311.58,147.21a9.9,9.9,0,0,1-1.4,3.21,7.85,7.85,0,0,1-2.66,2.53c-3.6,2-8.17.56-11.8-1.44s-7.2-4.58-11.33-4.75a19.6,19.6,0,0,1-3.44-.16,4.4,4.4,0,0,1-.95-.31h0a34.9,34.9,0,0,1-2.66-5.59c-1.81-4.93-2.56-10.31-4.92-15a38.81,38.81,0,0,0-1.47-7.64c-.22-.63-.53-1.33-1.17-1.51s-1.07.11-1.61.08c-1.3-.08-1.86-1.64-2.07-2.91a44.12,44.12,0,0,1-.52-6.06c0-.53,0-1,0-1.58,0,.81-7.05-1.2-7.68-1.57a41.57,41.57,0,0,1-4.84-3.43c-3.09-2.48-7-7.27-3.7-11.17a7,7,0,0,1,4.92-2.12,3.73,3.73,0,0,1,2.19.37,7.18,7.18,0,0,0,1,.64c.88.36,1.84-.21,2.7-.65,2.7-1.38,5.88-1.44,8.92-1.48a14,14,0,0,1,5.21.62A11.57,11.57,0,0,1,278.74,91a18.07,18.07,0,0,1,4.16,7.88c.34,1.82.31,3.81,1.38,5.32s3.15,2.17,5,2.85a18.75,18.75,0,0,1,8.38,5.72,17.44,17.44,0,0,1,3.34,8.84c.3,2.87.21,6.13,2.23,8.19,1.34,1.38,3.35,1.88,4.87,3.07,2.16,1.68,3.06,4.49,3.53,7.18A17.59,17.59,0,0,1,311.58,147.21Z" transform="translate(-54.75 -15.29)" fill="#f05e5f"/><path d="M310.18,150.42a7.85,7.85,0,0,1-2.66,2.53c-3.6,2-8.17.56-11.8-1.44s-7.2-4.58-11.33-4.75a19.6,19.6,0,0,1-3.44-.16,4.4,4.4,0,0,1-.95-.31h0a34.9,34.9,0,0,1-2.66-5.59c-1.81-4.93-2.56-10.31-4.92-15a38.81,38.81,0,0,0-1.47-7.64c-.22-.63-.53-1.33-1.17-1.51s-1.07.11-1.61.08c-1.3-.08-1.86-1.64-2.07-2.91a44.12,44.12,0,0,1-.52-6.06c1.7.37,5.41,3.23,6.89,3.58,2.84.68,5.87,1,8.34,2.53,4.57,2.87,5.7,9.4,3.81,14.46a6.79,6.79,0,0,0-.64,2.44c.06,1.95,2.12,3.23,4,3.69s4,.5,5.59,1.64c2.39,1.69,2.82,5.19,5,7.16,1.63,1.46,3.93,1.83,6,2.63A11.82,11.82,0,0,1,310.18,150.42Z" transform="translate(-54.75 -15.29)" fill="url(#linear-gradient-4)"/><path d="M270.62,127.62c-9.58,0-12.19,8.22-15.75,15.41-2.44,4.92-4.06,9.62-1.25,14.75,2.29,4.18,2.82,6.27,2.49,11.34a86.31,86.31,0,0,1-7.65,30.34c-.73,1.59-1.53,3.38-1,5,1,3,5.1,3,8.25,2.94a31.4,31.4,0,0,1,20.74,7.4c.9.77,1.92,1.65,3.1,1.52a3.58,3.58,0,0,0,2.37-1.74c3.38-4.82,3-11.22,2.57-17.09L282,165.64c-.72-8.94.14-19.84-2.59-28.41C277.9,132.59,275.49,127.61,270.62,127.62Z" transform="translate(-54.75 -15.29)" fill="#5c66f3"/><path d="M270.62,127.62c-9.58,0-12.19,8.22-15.75,15.41-2.44,4.92-4.06,9.62-1.25,14.75,2.29,4.18,2.82,6.27,2.49,11.34a86.31,86.31,0,0,1-7.65,30.34c-.73,1.59-1.53,3.38-1,5,1,3,5.1,3,8.25,2.94a31.4,31.4,0,0,1,20.74,7.4c.9.77,1.92,1.65,3.1,1.52a3.58,3.58,0,0,0,2.37-1.74c3.38-4.82,3-11.22,2.57-17.09L282,165.64c-.72-8.94.14-19.84-2.59-28.41C277.9,132.59,275.49,127.61,270.62,127.62Z" transform="translate(-54.75 -15.29)" fill="url(#linear-gradient-5)"/><path d="M270,143.84q2.75,11.28,5.62,22.54c-10.19,3.49-20.6,7-31.37,7.1a1.93,1.93,0,0,0-1.3.33,1.75,1.75,0,0,0-.43,1c-.44,2.17-1.82,9.8,2.11,9.07s8-2.42,12.07-2.93c2.13-.26,4.28-.22,6.42-.37a68.27,68.27,0,0,0,7.24-1.06l9.65-1.76c1.91-.35,4.07-.87,5-2.56a6.46,6.46,0,0,0,.61-2.79,74.75,74.75,0,0,0-3.15-25.83c-1.47-4.81-.35-13.64-7.47-14.22C268.56,131.82,269,139.69,270,143.84Z" transform="translate(-54.75 -15.29)" fill="#fdc0ad"/><path d="M264.13,129.11A8.77,8.77,0,0,1,265,131a3.7,3.7,0,0,1-.28,1.63c-1.29,4.18-.59,8.73.7,12.91s3.15,8.19,4.24,12.42c.61,2.34.88,5.11-.73,6.91-1.24,1.38-3.22,1.76-5.06,2.06l-15.3,2.49c-1.21,2.81-.53,6,.18,9,.53,2.27,1.28,4.82,3.38,5.84,1.61.79,3.52.41,5.27,0L280,179.12c1.83-.42,3.81-.93,4.94-2.42A7.84,7.84,0,0,0,286,172a106,106,0,0,0-4.46-31.81c-.93-3.12-2.06-6.28-4.2-8.73-1.73-2-5-6.48-7.61-7.28S262.81,126.06,264.13,129.11Z" transform="translate(-54.75 -15.29)" fill="#5c66f3"/><path d="M247.06,180.24a6.78,6.78,0,0,1,.53,2.24,2,2,0,0,1-1.08,1.9,2.55,2.55,0,0,1-.66.16,52.89,52.89,0,0,1-9.06.63,3.85,3.85,0,0,1-2.5-.65c-.67-.57-.77-1.83,0-2.22a6.61,6.61,0,0,1-1.88-1.33,2.19,2.19,0,0,1-.5-2.14,2.71,2.71,0,0,0,.21-.58,1.49,1.49,0,0,0-.43-.95,5.89,5.89,0,0,1-.94-2.07.88.88,0,0,1,0-.6.9.9,0,0,1,.45-.33,6.07,6.07,0,0,1,2.76-.45,4,4,0,0,1-.58-1.81,1.33,1.33,0,0,1,1.08-1.36,2,2,0,0,1,1.07.34,16,16,0,0,0,3.15,1.21,4.66,4.66,0,0,0,2.06.18c.7-.13,1.33-.54,2-.66a2.52,2.52,0,0,1,2.92,2.41A28.88,28.88,0,0,0,247.06,180.24Z" transform="translate(-54.75 -15.29)" fill="#fff"/><path d="M219.22,283.55a12.3,12.3,0,0,1-6.88,4c-2,.41-4.31.35-6,1.61a1.2,1.2,0,0,0-.58.95,1.29,1.29,0,0,0,.49.82,7.25,7.25,0,0,0,3.44,2,9.62,9.62,0,0,0,2.08.13h9.36a2.45,2.45,0,0,0,1.21-.22,2.41,2.41,0,0,0,.87-1.31q1.26-3.47,2.28-7a26.72,26.72,0,0,0-7.31-.13" transform="translate(-54.75 -15.29)" fill="#fdc0ad"/><path d="M219.58,291a9.51,9.51,0,0,1-3.83-.56,1.81,1.81,0,0,1-1-.86,8.75,8.75,0,0,1-.19-1.14,1.94,1.94,0,0,0-1.37-1.26,5.16,5.16,0,0,0-1.92-.06,62.92,62.92,0,0,0-11.13,2.54,3,3,0,0,0-1.11.51,1.89,1.89,0,0,0-.06,2.47,4.53,4.53,0,0,0,2.27,1.41,31.63,31.63,0,0,0,6.09,1.31,101.88,101.88,0,0,0,14.6.93,1.66,1.66,0,0,0,.89-.19,1.5,1.5,0,0,0,.46-.69c.32-.8,1.29-3.53.66-4.31S220.42,291,219.58,291Z" transform="translate(-54.75 -15.29)" fill="#7390a0"/><path d="M280.78,295.88a1.21,1.21,0,0,0-.35,1.06,1.33,1.33,0,0,0,.67.69,7.24,7.24,0,0,0,3.79,1.11,10.21,10.21,0,0,0,2.05-.34l9.12-2.16c.91-.22,2-.68,1.76-1.83A3.57,3.57,0,0,0,297,293q-2.14-2.67-4.44-5.21a2.45,2.45,0,0,0-.59-.52,2,2,0,0,0-.79-.19,7,7,0,0,0-3.87.8,1.64,1.64,0,0,0-.84.82c-.3.91.87,1.62,1.13,2.55.43,1.55-1.63,1.86-2.62,2.26C283.48,294.06,281.85,294.59,280.78,295.88Z" transform="translate(-54.75 -15.29)" fill="#fdc0ad"/><path d="M294.06,294.65a9.54,9.54,0,0,1-3.86.33,1.75,1.75,0,0,1-1.16-.61,9.31,9.31,0,0,1-.46-1.07,1.93,1.93,0,0,0-1.61-.91,4.94,4.94,0,0,0-1.89.38,61.91,61.91,0,0,0-10.25,5,2.88,2.88,0,0,0-1,.75,1.89,1.89,0,0,0,.51,2.42,4.66,4.66,0,0,0,2.53.86,31.65,31.65,0,0,0,6.23-.12,101.91,101.91,0,0,0,14.42-2.43,1.16,1.16,0,0,0,1.12-1.16c.12-.85.44-3.73-.35-4.35S294.88,294.46,294.06,294.65Z" transform="translate(-54.75 -15.29)" fill="#7390a0"/><path d="M284.22,185.61a14.24,14.24,0,0,0-1-7.59,42.22,42.22,0,0,0-3.68-6.81,14.78,14.78,0,0,0-2-2.78,9.36,9.36,0,0,0-3-2,10.88,10.88,0,0,0-4.84-.92c-.63,0-1.47,0-1.65-.61s.56-1.11,1.19-1.28a9,9,0,0,1,3.47-.26c3.88.48,7.05,3.45,9.07,6.81a39.49,39.49,0,0,1,3,6.64,52.4,52.4,0,0,1,2.8,9.72" transform="translate(-54.75 -15.29)" fill="#fff"/><polygon points="254.59 232.08 195.95 229.54 201.94 170.09 244.12 170.09 254.59 232.08" fill="#5c66f3"/><polygon points="241.07 172.9 241.07 229.33 252.49 229.33 241.07 172.9" fill="url(#linear-gradient-6)"/><path d="M274.16,163a9.64,9.64,0,0,1,2,.81,29.63,29.63,0,0,1,5.77,3.76,19.61,19.61,0,0,1,5.43,6.75,29.15,29.15,0,0,1,1.57,4.93l1.75,7c-1.28.07-2-1.41-2.38-2.63-1.36-4.3-2.9-8.6-5.52-12.27a18.44,18.44,0,0,0-8.15-6.62c-.62-.23-4.68-.82-4.75-1.37C269.77,162.32,273.76,162.87,274.16,163Z" transform="translate(-54.75 -15.29)" fill="#fff"/></svg>